<?xml version="1.0" encoding="utf-8"?>
<!-- Generator: Adobe Illustrator 17.0.0, SVG Export Plug-In . SVG Version: 6.00 Build 0)  -->
<!DOCTYPE svg PUBLIC "-//W3C//DTD SVG 1.1//EN" "http://www.w3.org/Graphics/SVG/1.1/DTD/svg11.dtd">
<svg version="1.1" id="Layer_1" xmlns="http://www.w3.org/2000/svg" xmlns:xlink="http://www.w3.org/1999/xlink" x="0px" y="0px"
	 width="6480px" height="2505.6px" viewBox="0 0 6480 2505.6" enable-background="new 0 0 6480 2505.6" xml:space="preserve">
<path fill="#FFFFFF" d="M3714.071,1131.37c0,26.852,0,53.703,0,80.555c-1.709,2.405-4.33,4.584-4.993,7.247
	c-15.333,61.568-47.068,112.387-98.251,150.852c-12.943,9.727-24.977,20.655-37.429,31.031c-376.301,0-752.602,0-1128.904,0
	c-2.276-1.981-4.227-4.813-6.876-5.816c-40.854-15.467-65.891-45.283-79.608-85.753c-2.013-5.941-5.608-11.35-8.471-17.005
	c0-21.014,0-42.029,0-63.043c1.903-2.95,4.605-5.658,5.585-8.886c10.228-33.698,29.386-61.896,60.251-78.293
	c26.127-13.88,55.418-21.854,86.925-33.814c0-3.43-0.057-11.999,0.012-20.567c0.13-16.016-1.73-32.366,0.839-47.991
	c17.629-107.242,95.972-189.667,202.597-215.531c29.975-7.271,59.802-7.449,89.975-3.054c10.101,1.471,14.932-2.692,19.282-12.356
	c9.969-22.147,20.021-44.777,33.82-64.601c51.287-73.683,121.477-120.409,209.508-140.311c8.93-2.019,17.492-5.648,26.225-8.529
	c32.824,0,65.647,0,98.471,0c3.054,1.711,5.946,4.478,9.188,4.976c66.989,10.274,126.042,38.552,175.874,83.216
	c67.003,60.055,103.403,136.233,108.461,226.333c0.639,11.381,5.782,14.519,15.683,16.473c20.406,4.027,41.49,6.927,60.669,14.417
	c65.322,25.51,112.31,70.872,139.788,135.498C3700.38,1094.497,3706.974,1113.04,3714.071,1131.37z"/>
<path fill="#1B8DA2" d="M3279.61,1245.226c-8.799,0-17.599,0-26.398,0c-0.48,0-0.96-0.009-1.44,0.002
	c-1.844,0.043-2.082,0.172-1.806,1.87c0.421,2.59,0.661,5.222,1.472,7.74c1.288,4.001,3.54,7.489,6.286,10.567
	c1.099,1.232,2.627,2.248,4.016,3.298c3.731,2.819,7.858,4.69,12.406,5.704c0.633,0.141,1.254,0.282,1.89,0.227
	c1.204-0.103,2.382-0.154,3.532,0.36c0.344,0.154,0.797,0.178,1.179,0.12c4.367-0.662,8.985-0.36,12.933-2.733
	c2.614-1.571,5.93-2.035,7.792-4.818c4.242-1.915,6.247-6.119,9.379-9.169c0.995-2.834,3.24-5.004,3.999-8.026
	c0.553-2.201,1.476-4.345,2.225-6.519c0.496-1.44,0.895-2.891,0.851-4.433c-0.048-1.68,0.497-3.287,0.725-4.928
	c0.668-4.807,0.114-9.465-0.532-14.226c-0.5-3.682-1.63-7.113-2.614-10.623c-0.432-1.54-0.949-3.052-2.117-4.241
	c-0.214-0.218-0.342-0.542-0.452-0.838c-1.661-4.452-5.31-7.521-7.869-11.346c-0.471-0.705-1.257-0.974-1.815-1.525
	c-2.14-2.117-4.503-4.152-7.085-5.454c-3.561-1.797-6.838-4.395-11.096-4.778c-1.945-0.175-3.93-0.653-5.817-1.174
	c-3.562-0.983-7.002-0.254-10.402,0.376c-2.858,0.53-5.751,1.105-8.479,2.316c-4.186,1.858-7.956,4.299-11.427,7.264
	c-3.558,3.039-6.695,6.48-9.62,10.105c-1.234,1.53-2.139,3.331-3.14,5.04c-1.162,1.983-2.647,3.884-3.303,6.032
	c-0.955,3.128-2.711,5.921-3.458,9.114c-0.289,1.236-0.645,2.436-0.826,3.711c-0.276,1.95-1.262,3.722-1.492,5.74
	c-0.624,5.453-1.649,10.842-0.886,16.405c0.389,2.835,0.409,5.764,1.215,8.499c1.248,4.236,1.558,8.797,4.131,12.601
	c0.134,0.198,0.335,0.401,0.357,0.617c0.303,2.979,2.424,5.131,3.504,7.754c0.54,1.312,1.535,2.368,2.284,3.542
	c1.855,2.908,3.68,5.914,6.173,8.342c1.286,1.252,2.556,2.528,3.867,3.754c3.018,2.822,6.421,5.208,9.968,7.245
	c3.42,1.965,7.202,3.32,11.085,4.255c6.975,1.679,13.906,1.15,20.881-0.147c3.388-0.63,6.539-2.003,9.901-2.657
	c1.587-0.309,2.865-1.342,4.295-2.015c3.318-1.564,6.518-3.286,9.242-5.768c2.317-2.112,4.445-4.393,6.468-6.807
	c2.15-2.566,3.718-5.497,5.7-8.158c1.182-1.587,2.404-2.499,4.633-2.097c1.832,0.331,3.798-0.107,5.706-0.164
	c2.467-0.075,3.417,0.739,3.461,3.178c0.032,1.752-0.456,3.285-1.512,4.872c-2.018,3.03-4.188,5.97-6.259,8.949
	c-1.811,2.605-3.794,5.21-6.387,7.328c-2.252,1.84-4.167,4.154-6.526,5.925c-2.352,1.765-4.545,3.874-7.267,4.981
	c-3.179,1.293-6.225,2.865-9.406,4.139c-0.517,0.207-1.044,0.674-1.528,0.626c-2.44-0.242-4.675,0.7-6.982,1.138
	c-6.889,1.307-13.833,1.15-20.774,0.949c-3.506-0.102-6.974-0.734-10.336-1.762c-1.075-0.329-2.18-0.369-3.26-0.619
	c-1.867-0.433-3.092-1.93-4.842-2.483c-3.467-1.097-6.335-3.323-9.217-5.37c-2.101-1.493-3.955-3.424-5.972-5.096
	c-3.388-2.809-5.433-6.826-8.771-9.673c-1.018-2.52-2.907-4.507-4.191-6.87c-2.242-4.125-4.175-8.389-6.069-12.681
	c-0.874-1.98-1.167-4.118-2.047-6.091c-1.536-3.444-1.747-7.231-2.475-10.872c-1.517-7.583-1.067-15.283-0.891-22.949
	c0.101-4.403,1.065-8.705,2.004-12.991c1.4-6.389,3.918-12.356,6.647-18.284c1.062-2.306,2.241-4.592,3.602-6.622
	c1.327-1.98,2.304-4.359,4.359-5.839c0.809-0.583,1.168-1.506,1.734-2.273c1.713-2.322,3.979-4.111,5.944-6.184
	c1.873-1.977,4.083-3.603,6.26-5.017c2.693-1.748,5.44-3.678,8.479-4.772c3.142-1.131,6.128-2.731,9.431-3.399
	c2.021-0.409,4.046-0.907,6.092-1.067c4.148-0.324,8.326-0.368,12.466,0.017c3.965,0.368,7.735,1.624,11.541,2.833
	c5.336,1.694,9.941,4.654,14.463,7.704c1.802,1.215,3.608,2.729,5.057,4.564c1.312,1.661,3.199,2.828,4.482,4.59
	c0.513,0.704,1.207,1.259,1.414,2.168c0.069,0.303,0.184,0.647,0.394,0.857c3.52,3.528,4.982,8.204,7.052,12.545
	c2.04,4.28,2.992,8.896,4.092,13.448c1.106,4.582,0.934,9.305,1.063,13.995c0.121,4.4-0.223,8.779-0.545,13.14
	c-0.138,1.877-0.336,3.926-1.32,5.762c-0.622,1.161-0.739,2.591-1.087,3.9c-0.855,3.217-2.148,6.248-3.441,9.316
	c-1.064,2.524-3.467,4.193-3.884,6.982c-0.031,0.207-0.241,0.427-0.425,0.566c-2.144,1.622-3.326,4.07-5.134,5.964
	c-1.581,1.655-3.307,3.192-5.092,4.629c-2.481,1.998-5.333,3.475-8.044,5.111c-2.21,1.334-4.871,1.938-7.358,2.79
	c-2.57,0.88-5.22,1.387-7.95,1.357c-1.616-0.017-3.05,0.796-4.692,0.849c-3.39,0.109-6.626-0.886-9.97-1.073
	c-3.969-0.223-7.501-2.096-11.084-3.552c-2.452-0.996-4.802-2.556-6.775-4.333c-2.167-1.953-4.365-3.896-6.311-6.156
	c-2.224-2.584-3.939-5.364-5.34-8.38c-2.148-4.623-4.074-9.377-4.829-14.428c-0.321-2.149-0.302-4.422-0.367-6.637
	c-0.098-3.35-0.306-6.719,0.312-10.054c0.029-0.156,0.033-0.319,0.028-0.479c-0.182-5.528,1.892-10.54,3.477-15.683
	c0.97-3.15,2.856-5.798,4.274-8.696c0.58-1.185,1.885-1.915,2.678-3.041c1.191-1.692,2.862-3.021,3.777-4.931
	c0.033-0.07,0.089-0.146,0.154-0.181c3.14-1.646,5.35-4.774,9.036-5.58c1.235-0.27,2.388-0.896,3.596-1.307
	c2.718-0.926,5.506-1.392,8.386-1.596c5.82-0.412,11.333,0.89,16.441,3.36c2.848,1.377,5.842,2.887,7.964,5.556
	c1.022,1.286,2.345,2.344,3.442,3.609c1.876,2.163,3.418,4.569,4.681,7.082c2.32,4.614,3.894,9.5,4.869,14.616
	c0.825,4.334,1.441,8.635,1.316,13.056c-0.101,3.583-0.992,4.61-4.534,4.614C3298.008,1245.233,3288.809,1245.226,3279.61,1245.226z
	 M3298.653,1231.022c-0.869-3.835-2.221-7.351-4.255-10.577c-0.556-0.883-0.652-1.95-1.398-2.748
	c-2.207-2.362-4.024-5.091-6.936-6.762c-2.896-1.662-5.648-3.487-9.21-3.541c-3.932-0.059-7.542,0.335-11.26,2.167
	c-3.633,1.79-5.927,4.869-9.01,7.12c-0.272,0.199-0.368,0.694-0.46,1.073c-0.116,0.479-0.317,0.888-0.627,1.27
	c-2.266,2.797-3.688,6.035-4.717,9.437c-0.83,2.742-0.705,2.824,2.13,2.824c14.452,0.003,28.904,0.003,43.356-0.005
	C3296.976,1231.279,3297.703,1231.412,3298.653,1231.022z"/>
<path fill="#1B8DA2" d="M2967.354,1231.33c0.92-0.741,1.105-1.637,1.466-2.411c9.047-19.417,18.104-38.829,27.072-58.282
	c0.823-1.785,1.772-2.535,3.761-2.397c2.467,0.171,4.955,0.029,7.429,0.253c4.268,0.387,6.326,2.429,6.675,6.696
	c0.11,1.353,0.193,2.714,0.193,4.071c0.01,44.399-0.009,88.798,0.062,133.198c0.003,2.095-0.757,3.47-2.218,4.709
	c-0.452,0.384-0.914,0.598-1.512,0.581c-2.634-0.077-5.273,0.16-7.898-0.327c-3.925-0.728-5.598-2.542-6.061-6.572
	c-0.431-3.751-0.321-7.514-0.252-11.267c0.314-17.035,0.267-34.072,0.407-51.107c0.1-12.156,0.218-24.312,0.326-36.468
	c0.005-0.607,0.001-1.214,0.001-2.097c-0.895,0.566-1.035,1.302-1.318,1.898c-5.319,11.189-10.593,22.4-15.943,33.574
	c-1.725,3.603-3.693,7.09-5.448,10.68c-0.591,1.208-1.384,1.552-2.647,1.511c-2.478-0.079-4.963-0.101-7.438,0.006
	c-1.469,0.063-2.275-0.48-3.01-1.751c-4.486-7.764-8.25-15.888-12.13-23.955c-3.049-6.339-6.1-12.677-9.155-19.012
	c-0.307-0.637-0.648-1.258-0.993-1.924c-0.784,0.368-0.424,0.999-0.423,1.462c0.038,16.959-0.006,33.918,0.188,50.876
	c0.17,14.876,0.22,29.752,0.281,44.629c0.006,1.523-0.062,3.03-0.384,4.53c-0.565,2.636-2.195,4.219-4.756,4.821
	c-2.99,0.702-6.048,0.526-9.083,0.464c-1.301-0.026-3.336-2.21-3.456-3.512c-0.044-0.476-0.011-0.959-0.011-1.439
	c0-46.479,0.012-92.958-0.047-139.437c-0.002-1.801,0.57-3.011,1.831-4.145c0.712-0.64,1.426-0.944,2.363-0.906
	c2.396,0.098,4.798,0.096,7.19,0.247c3.345,0.212,5.913,1.792,7.667,4.662c1.337,2.188,2.406,4.513,3.483,6.833
	c7.671,16.531,15.332,33.066,22.997,49.6C2966.795,1230.126,2967.03,1230.632,2967.354,1231.33z"/>
<path fill="#1A8DA1" d="M3395.281,1226.937c0-17.838-0.001-35.676,0.001-53.513c0-3.574,1.593-5.159,5.241-5.127
	c2.157,0.019,4.323,0.043,6.468,0.24c4.187,0.384,6.283,2.615,6.567,6.842c0.08,1.196,0.093,2.398,0.093,3.597
	c0.005,29.036,0.018,58.073-0.005,87.109c-0.006,7.757-0.085,15.515-1.091,23.227c-0.538,4.128-1.339,8.192-2.766,12.124
	c-3.033,8.353-8.747,13.859-17.374,16.063c-9.467,2.419-19,2.457-28.448-0.134c-7.579-2.079-12.845-6.883-15.862-14.156
	c-2.264-5.459-3.104-11.221-3.67-17.039c-0.598-6.137-0.629-12.299-0.634-18.455c-0.024-31.516,0-63.032-0.043-94.548
	c-0.002-1.658,0.418-2.892,1.694-3.962c0.727-0.61,1.426-0.927,2.36-0.926c2.56,0.005,5.121-0.03,7.67,0.246
	c3.908,0.424,5.913,2.291,6.493,6.171c0.2,1.335,0.18,2.711,0.18,4.068c0.009,29.596,0.006,59.193,0.008,88.789
	c0,6.559,0.143,13.113,0.946,19.634c0.333,2.705,0.89,5.354,1.925,7.891c1.665,4.084,4.751,6.261,9.051,6.926
	c2.876,0.444,5.727,0.427,8.596-0.019c4.471-0.695,7.637-3.023,9.389-7.248c1.269-3.06,1.892-6.263,2.264-9.527
	c0.88-7.722,0.938-15.479,0.944-23.237C3395.288,1250.294,3395.281,1238.615,3395.281,1226.937z"/>
<path fill="#1B8DA2" d="M3164.508,1209.239c0.879,0.233,1.569-0.295,2.289-0.568c3.734-1.417,7.463-2.852,11.162-4.359
	c1.365-0.556,2.721-0.796,4.188-0.752c2.488,0.074,4.936,0.376,7.361,0.917c6.933,1.546,11.674,5.646,14.31,12.224
	c1.56,3.891,2.33,7.966,2.806,12.103c0.805,7,0.977,14.033,0.979,21.072c0.005,20.954-0.031,41.908,0.056,62.862
	c0.008,1.924-0.685,3.158-2.014,4.3c-0.51,0.439-1.008,0.723-1.702,0.715c-2.636-0.03-5.278,0.105-7.892-0.407
	c-3.143-0.617-4.692-2.172-5.38-5.325c-0.311-1.425-0.311-2.856-0.313-4.295c-0.027-20.554-0.018-41.108-0.101-61.661
	c-0.022-5.594-0.318-11.189-1.372-16.707c-0.421-2.204-1.01-4.366-2.167-6.318c-1.752-2.956-4.297-3.887-7.542-2.746
	c-4.596,1.616-9.175,3.284-13.778,4.88c-1.092,0.379-1.544,0.859-1.197,2.093c0.254,0.9,0.194,1.902,0.194,2.859
	c0.009,25.993,0.008,51.985,0.004,77.978c0,1.438-0.038,2.863-0.353,4.29c-0.608,2.745-2.328,4.294-4.984,4.887
	c-2.758,0.615-5.569,0.516-8.364,0.443c-1.429-0.038-3.437-2.229-3.536-3.678c-0.032-0.478-0.007-0.959-0.007-1.439
	c0-47.187,0.009-94.374-0.037-141.56c-0.002-1.744,0.392-3.045,1.732-4.186c0.793-0.675,1.55-1.035,2.573-0.982
	c2.075,0.108,4.16,0.08,6.227,0.268c3.917,0.357,5.837,2.305,6.369,6.224c0.194,1.431,0.256,2.864,0.255,4.306
	c-0.006,9.997-0.009,19.994,0.008,29.992C3164.286,1207.521,3164.075,1208.412,3164.508,1209.239z"/>
<path fill="#1B8DA2" d="M3059.614,1290.75c2.816-18.079,5.59-35.921,8.374-53.761c1.577-10.105,3.185-20.206,4.733-30.316
	c0.171-1.119,0.464-1.732,1.754-1.678c2.396,0.099,4.8,0.01,7.197,0.095c1.029,0.037,2.077,0.216,3.068,0.501
	c2.358,0.677,3.685,2.411,3.867,4.92c0.21,2.895-0.218,5.754-0.656,8.594c-2.08,13.505-4.624,26.929-7.291,40.328
	c-4.538,22.798-9.151,45.582-13.75,68.368c-0.775,3.84-1.747,7.627-3.131,11.305c-3.952,10.507-11.664,16.27-22.586,18.04
	c-2.613,0.423-5.24,0.61-7.884,0.601c-2.078-0.008-4.095-1.94-4.131-4.02c-0.039-2.239-0.035-4.48,0.001-6.719
	c0.028-1.738,1.958-3.874,3.675-4.117c1.027-0.145,2.082-0.146,3.089-0.37c6.006-1.339,9.738-5.203,11.81-10.834
	c1.794-4.875,1.734-9.858,0.829-14.898c-3.727-20.76-7.735-41.466-11.703-62.18c-2.871-14.986-5.702-29.98-8.545-44.972
	c-0.379-1.996,1.638-4.594,3.652-4.603c2.553-0.012,5.109-0.139,7.651,0.379c2.947,0.6,4.847,2.269,5.811,5.093
	c0.882,2.586,1.313,5.271,1.762,7.947c2.879,17.18,5.731,34.364,8.584,51.548c1.02,6.147,2.02,12.298,3.024,18.448
	C3058.933,1289.154,3058.99,1289.871,3059.614,1290.75z"/>
<path fill="#1B8DA2" d="M2901.849,1261.164c-0.052,8.953,0.168,17.91-0.481,26.854c-0.325,4.469-0.845,8.904-1.957,13.256
	c-2.58,10.102-9.044,15.896-19.339,17.369c-6.054,0.866-12.113,0.839-18.135-0.35c-8.504-1.679-14.192-6.567-16.923-14.846
	c-1.666-5.052-2.306-10.274-2.688-15.544c-0.555-7.663-0.519-15.34-0.48-23.015c0.05-10.152-0.252-20.31,0.466-30.453
	c0.311-4.39,0.817-8.743,1.891-13.023c2.406-9.584,8.313-15.457,18.157-17.083c7.243-1.196,14.483-1.23,21.649,0.606
	c7.228,1.853,11.993,6.402,14.491,13.389c1.848,5.169,2.475,10.555,2.869,15.986
	C2902.016,1243.253,2901.795,1252.211,2901.849,1261.164z M2884.521,1261.034c-0.005-8.555,0.316-17.118-0.432-25.66
	c-0.308-3.508-0.7-7.003-2.11-10.285c-1.353-3.148-3.744-4.89-7.148-5.25c-0.716-0.076-1.431-0.234-2.146-0.228
	c-6.629,0.058-9.997,1.271-11.935,8.511c-0.083,0.308-0.135,0.625-0.207,0.936c-0.986,4.313-1.211,8.72-1.305,13.106
	c-0.27,12.636-0.303,25.277-0.001,37.912c0.122,5.103,0.355,10.235,1.787,15.204c1.548,5.369,4.233,7.487,9.827,7.758
	c7.496,0.363,10.764-2.143,12.293-9.462c1.035-4.954,1.277-9.989,1.356-15.024
	C2884.591,1272.713,2884.521,1266.873,2884.521,1261.034z"/>
<path fill="#1B8DA2" d="M3432.851,1308.548c0-1.28,0.179-2.592-0.039-3.833c-0.41-2.327,1.035-3.51,2.531-4.746
	c0.793-0.656,1.689-0.366,2.533-0.285c5.013,0.482,10.025,0.979,15.031,1.532c2.234,0.247,4.469,0.249,6.708,0.286
	c2.579,0.042,4.414-1.176,5.732-3.297c0.897-1.443,1.459-3.038,1.795-4.681c0.805-3.93,1.092-7.908,0.966-11.923
	c-0.068-2.169-0.822-4.04-2.092-5.758c-1.678-2.269-3.727-4.169-5.863-5.987c-4.872-4.148-10.192-7.744-14.905-12.089
	c-4.198-3.871-8.033-8.028-10.62-13.195c-1.857-3.711-2.8-7.629-2.798-11.786c0.001-3.281,0.105-6.551,0.365-9.825
	c0.837-10.527,6.43-16.628,16.87-18.462c5.264-0.925,10.477-0.827,15.729,0.08c4.408,0.761,8.852,1.317,13.279,1.976
	c2.195,0.326,2.188,0.338,2.213,2.48c0.02,1.684-0.059,3.349-0.498,4.994c-1.163,4.355-4.179,6.773-8.666,6.863
	c-3.543,0.071-6.984-0.772-10.458-1.272c-2.52-0.363-4.94-0.085-7.354,0.525c-2.828,0.714-4.224,2.69-4.672,5.464
	c-0.899,5.573-0.047,10.567,4.101,14.839c3.355,3.456,6.884,6.682,10.667,9.641c4.662,3.646,9.407,7.19,13.561,11.438
	c1.907,1.951,3.662,4.021,5.123,6.329c2.277,3.595,3.499,7.473,3.457,11.784c-0.065,6.807-0.233,13.592-1.926,20.24
	c-0.474,1.863-1.084,3.678-1.878,5.428c-3.549,7.819-9.623,12.095-18.138,13.044c-6.042,0.673-11.962-0.316-17.895-1.151
	c-3.797-0.534-7.573-1.226-11.372-1.741c-1.098-0.149-1.548-0.504-1.505-1.633
	C3432.901,1312.07,3432.851,1310.308,3432.851,1308.548z"/>
<path fill="#1B8DA2" d="M3099.524,1221.266c-1.483,0-2.752,0.031-4.019-0.007c-1.906-0.058-3.949-2.081-3.977-3.986
	c-0.041-2.798-0.045-5.598,0.002-8.396c0.03-1.762,2.091-3.728,3.847-3.866c1.401-0.11,3.224,0.672,4.09-0.432
	c0.735-0.938-0.103-2.614-0.125-3.967c-0.041-2.478-0.055-4.959-0.004-7.437c0.041-1.973,2.029-3.969,3.97-3.98
	c2.555-0.015,5.117-0.107,7.649,0.417c3.337,0.69,5.143,2.639,5.447,6.067c0.212,2.391,0.195,4.791,0.014,7.189
	c-0.16,2.121-0.144,2.141,1.906,2.148c3.759,0.014,7.517-0.003,11.276,0.007c2.927,0.007,4.622,1.772,4.571,4.758
	c-0.031,1.834,0.018,3.661-0.385,5.487c-0.707,3.209-2.711,4.946-5.833,5.578c-2.849,0.576-5.733,0.406-8.608,0.419
	c-2.849,0.014-2.818,0.004-2.815,2.914c0.011,16.154-0.028,32.308,0.022,48.462c0.02,6.314,0.192,12.629,0.363,18.941
	c0.073,2.717,0.364,5.429,1.136,8.051c0.81,2.749,1.613,3.354,4.442,3.38c3.758,0.034,7.517-0.003,11.276,0.016
	c2.459,0.012,4.341,1.862,4.361,4.293c0.024,2.879-0.054,5.76,0.032,8.636c0.039,1.285-0.487,1.668-1.661,1.742
	c-4.786,0.304-9.566,0.71-14.353,0.988c-3.129,0.181-6.237-0.159-9.266-0.967c-4.966-1.325-8.421-4.415-10.39-9.159
	c-1.361-3.28-1.942-6.745-2.371-10.24c-0.537-4.372-0.58-8.771-0.65-13.168c-0.32-20.07-0.064-40.141-0.136-60.211
	C3099.329,1223.826,3099.445,1222.713,3099.524,1221.266z"/>
<path fill="#1B8DA2" d="M2806.866,1211.028c3.817-2.292,7.323-4.352,10.776-6.499c1.138-0.708,2.28-1.012,3.61-0.965
	c3.538,0.123,6.956,0.935,10.394,1.656c0.819,0.172,1.204,0.581,1.166,1.484c-0.094,2.235,0.035,4.487-0.177,6.708
	c-0.349,3.651-2.4,5.59-6.029,5.993c-0.317,0.035-0.641,0.079-0.957,0.056c-3.571-0.258-6.683,0.902-9.673,2.795
	c-2.763,1.749-5.686,3.252-8.583,4.778c-0.963,0.507-1.284,1.137-0.963,2.114c0.462,1.401,0.372,2.842,0.372,4.278
	c0.002,26.38-0.023,52.761,0.05,79.141c0.005,1.971-0.597,3.343-2.052,4.522c-0.527,0.427-1.04,0.675-1.722,0.665
	c-2.555-0.037-5.113,0.098-7.65-0.379c-3.302-0.621-4.872-2.146-5.565-5.41c-0.235-1.106-0.304-2.214-0.304-3.334
	c-0.001-33.015-0.003-66.031,0.002-99.046c0-2.771,1.796-4.564,4.57-4.56c1.997,0.003,3.999,0,5.991,0.121
	C2803.658,1205.359,2806.324,1206.737,2806.866,1211.028z"/>
<path fill="#2290A4" d="M3516.538,1176.882c-1.14,3.32-2.117,6.161-3.091,9.004c-0.181,0.529-0.402,1.051-0.516,1.595
	c-0.266,1.267-0.857,1.849-2.299,1.801c-1.305-0.043-1.778-0.556-2.138-1.704c-1.004-3.199-2.133-6.36-3.211-9.536
	c-0.126-0.372-0.162-0.789-0.531-1.053c-0.825,0.094-0.393,0.753-0.397,1.098c-0.044,3.198-0.006,6.397-0.036,9.595
	c-0.015,1.539-0.058,1.539-1.662,1.542c-1.639,0.003-1.729-0.023-1.735-1.488c-0.024-5.917,0.017-11.835-0.032-17.751
	c-0.01-1.212,0.489-1.557,1.573-1.461c0.476,0.042,0.964,0.053,1.438-0.002c1.087-0.127,1.547,0.424,1.862,1.397
	c1.059,3.267,2.159,6.521,3.312,9.756c0.501,1.407,0.76,2.919,1.623,4.217c0.73-0.697,0.809-1.621,1.091-2.436
	c1.251-3.624,2.439-7.27,3.664-10.903c0.686-2.033,0.698-2.029,2.823-2.023c2.202,0.007,2.216,0.007,2.22,2.227
	c0.008,5.597,0.011,11.195-0.01,16.792c-0.002,0.578,0.303,1.415-0.597,1.591c-0.849,0.165-1.781,0.299-2.581-0.119
	c-0.449-0.234-0.294-0.863-0.296-1.328c-0.01-2.639,0.009-5.278-0.014-7.916C3516.988,1178.99,3517.163,1178.178,3516.538,1176.882z
	"/>
<path fill="#2A94A7" d="M3489.054,1180.61c-0.001-2.396-0.042-4.792,0.016-7.187c0.028-1.189-0.322-1.779-1.616-1.692
	c-1.192,0.08-2.398-0.044-3.591,0.027c-1.35,0.08-1.34-0.767-1.323-1.702c0.015-0.826-0.069-1.57,1.195-1.555
	c4.711,0.055,9.423,0.057,14.134-0.001c1.268-0.016,1.181,0.729,1.196,1.554c0.017,0.934,0.031,1.788-1.321,1.703
	c-1.114-0.07-2.236-0.032-3.353-0.006c-1.711,0.04-1.753,0.052-1.764,1.718c-0.026,4.073-0.009,8.145-0.01,12.218
	c0,0.559,0.008,1.118-0.001,1.677c-0.031,1.915-0.091,1.911-2.04,1.925c-1.107,0.008-1.579-0.304-1.542-1.493
	C3489.108,1185.403,3489.055,1183.005,3489.054,1180.61z"/>
<path fill="#1C8EA3" d="M2686.105,1113.936c0-62.712-0.02-125.424,0.035-188.135c0.005-5.43,0.535-10.859,0.747-16.291
	c0.046-1.181,0.499-1.571,1.594-1.448c0.316,0.036,0.639,0.004,0.959,0.004c0.56,0,1.12,0,1.68,0
	c55.192-0.03,110.384-0.049,165.576-0.099c10.789-0.01,21.101,2.393,31.109,6.157c21.042,7.915,37.164,21.869,49.242,40.664
	c8.13,12.65,13.348,26.505,16.807,41.071c4.232,17.815,5.194,35.866,3.939,54.088c-1.621,23.531-8.758,45.27-21.413,65.127
	c-11.066,17.363-25.649,30.993-44.292,39.999c-12.352,5.967-25.441,8.922-39.175,8.919c-26.556-0.005-53.112-0.022-79.667-0.034
	c-0.56,0-1.127,0.057-1.678-0.01c-1.331-0.162-1.674,0.512-1.576,1.684c0.053,0.635,0.009,1.279,0.009,1.919
	c0,49.594,0.002,99.187-0.005,148.781c0,3.465,0.395,3.056-3.075,3.057c-25.757,0.01-51.513,0.005-77.27,0.005
	c-0.4,0-0.8,0.01-1.2-0.002c-1.696-0.05-1.744-0.051-1.809-1.737c-0.2-5.194-0.51-10.389-0.512-15.583
	C2686.092,1239.36,2686.105,1176.648,2686.105,1113.936z M2696.148,1114.295c0,62.315-0.001,124.631,0.004,186.946
	c0,1.759,0.031,3.519,0.09,5.278c0.112,3.407,0.148,2.824,2.94,2.826c19.198,0.015,38.397,0.015,57.596,0.002
	c3.624-0.002,3.169,0.436,3.17-3.198c0.009-49.836,0.005-99.672,0.009-149.509c0-2.996-0.29-2.726,2.672-2.729
	c20.878-0.017,41.757-0.036,62.635-0.036c9.359,0,18.718,0.066,28.077,0.062c9.942-0.005,19.558-1.846,28.797-5.488
	c16.191-6.383,29.372-16.845,39.906-30.537c16.394-21.31,24.685-45.658,25.998-72.413c0.597-12.16,0.211-24.295-1.794-36.348
	c-2.122-12.755-5.523-25.118-11.023-36.852c-6.551-13.976-15.632-26.006-27.731-35.666c-15.773-12.594-34.112-18.165-53.955-19.295
	c-5.236-0.298-10.551-0.536-15.775,0.63c-0.841,0.188-1.753,0.072-2.632,0.072c-45.037,0.002-90.073,0.002-135.11,0.002
	c-0.64,0-1.287,0.06-1.918-0.011c-1.28-0.144-1.609,0.473-1.701,1.649c-0.163,2.076-0.254,4.15-0.254,6.23
	C2696.148,988.704,2696.148,1051.499,2696.148,1114.295z"/>
<path fill="#2290A5" d="M2881.718,1069.561c0.064-1.076,0.774-1.891,1.191-2.811c0.324-0.715,1.019-0.654,1.663-0.653
	c1.44,0.003,2.88,0.012,4.32-0.003c1.986-0.02,2.008-0.029,2.017-1.937c0.016-3.6,0.005-7.2,0.005-10.8
	c0-4.08,0.012-8.16-0.006-12.24c-0.008-1.845-0.036-1.882-1.834-1.884c-11.68-0.012-23.359-0.012-35.039,0.001
	c-1.707,0.002-1.738,0.043-1.88,1.682c-0.337,3.864-1.372,7.543-2.971,11.059c-0.714,1.571-0.975,1.651,0.907,2.744
	c8.919,5.177,17.823,10.38,26.733,15.572c2.555,1.489,5.11,2.981,7.674,4.455c0.756,0.435,0.956,0.897,0.921,1.889
	c-0.179,5.113-0.139,10.234-0.197,15.351c-0.011,0.946,0.591,0.984,1.265,0.985c1.92,0.002,3.84-0.023,5.76,0.012
	c1.848,0.033,1.991,0.194,2.031,2.109c0.027,1.279-0.002,2.56,0.007,3.84c0.025,3.394-0.326,2.995,2.89,3.002
	c7.6,0.015,15.2,0.005,22.799,0.005c1.885,0,3.771,0,5.682,0c-0.01,1.059-0.633,1.541-0.906,2.182
	c-0.577,1.36-1.611,1.713-3.059,1.702c-8.079-0.063-16.159-0.03-24.239-0.03c-0.56,0-1.125,0.048-1.679-0.008
	c-1.157-0.117-1.529,0.377-1.509,1.514c0.057,3.199,0.019,6.399,0.018,9.599c0,1.28,0.026,2.561-0.008,3.84
	c-0.033,1.233-0.62,1.843-1.655,1.816c-1.026-0.026-1.542-0.61-1.548-1.922c-0.021-4.24,0-8.48-0.012-12.72
	c-0.006-2.091-0.023-2.108-2.077-2.116c-3.68-0.014-7.36-0.024-11.04,0.005c-1.687,0.013-1.634,0.052-1.503,1.735
	c0.104,1.352,0.079,2.716,0.081,4.074c0.007,5.92,0.007,11.839,0.001,17.759c-0.003,2.967-0.01,2.968-2.872,2.975
	c-1.36,0.003-2.72-0.009-4.08,0.003c-2.131,0.019-2.151,0.025-2.162,2.08c-0.018,3.28-0.004,6.56-0.005,9.84
	c-0.001,2.88-0.002,2.88-3.219,2.937c0-3.109,0-6.217,0-9.325c0-2.32-0.022-4.64,0.008-6.96c0.025-1.933,0.153-2.061,2.025-2.095
	c1.759-0.032,3.52,0.02,5.28-0.017c1.744-0.036,1.705-0.065,1.701-1.748c-0.013-6.559-0.007-13.117,0.009-19.676
	c0.004-1.525,0.034-1.572-1.58-1.582c-4.24-0.028-8.48-0.01-12.719-0.011c-0.56,0-1.122,0.028-1.68-0.009
	c-1.589-0.106-1.789-0.283-1.823-1.852c-0.041-1.839-0.052-3.681,0.004-5.519c0.035-1.154-0.244-1.778-1.576-1.758
	c-3.919,0.057-7.84,0.046-11.759,0.005c-1.099-0.011-1.574,0.309-1.567,1.494c0.04,6.719,0.035,13.439,0.003,20.159
	c-0.005,1.103,0.311,1.604,1.495,1.561c1.917-0.07,3.84-0.048,5.759-0.007c1.616,0.035,1.839,0.228,1.867,1.782
	c0.047,2.639,0.049,5.28-0.003,7.919c-0.028,1.432-0.418,1.767-1.646,1.819c-1.068,0.046-1.664-0.328-1.621-1.508
	c0.059-1.598,0.003-3.2,0.078-4.796c0.052-1.127-0.362-1.582-1.513-1.544c-1.838,0.061-3.68,0.04-5.519,0.007
	c-1.88-0.034-2.108-0.212-2.087-2.061c0.091-7.831-0.275-15.666,0.199-23.492c0.059-0.97-0.367-1.308-1.229-1.312
	c-1.76-0.008-3.52-0.002-5.28-0.009c-2.455-0.01-2.501-0.045-2.494-1.764c0.008-1.79,0.154-1.922,2.424-1.929
	c4.24-0.012,8.48-0.004,12.72-0.004c0.792,0,1.584,0,2.337,0c0.279-0.76-0.189-1.177-0.448-1.639
	c-3.716-6.619-7.443-13.233-11.17-19.846c-0.274-0.487-0.62-0.94-0.842-1.448c-0.392-0.896-0.983-0.888-1.743-0.527
	c-3.869,1.839-7.959,2.868-12.217,3.226c-0.82,0.069-1.116,0.404-1.108,1.191c0.021,1.92,0.003,3.84,0.002,5.759
	c-0.003,5.52-0.035,11.039,0.015,16.558c0.012,1.37-0.268,2.69-0.352,4.036c-0.036,0.58-0.264,1.468,0.658,1.539
	c1.01,0.077,0.724-0.844,0.735-1.398c0.04-1.919,0.044-3.84,0.005-5.759c-0.021-1.052,0.286-1.681,1.461-1.696
	c1.273-0.016,1.734,0.307,1.752,1.66c0.046,3.439,0.017,6.88,0.018,10.319c0,5.36,0.008,10.72-0.004,16.079
	c-0.005,2.442-0.083,2.505-2.603,2.521c-1.68,0.011-3.361,0.042-5.04-0.009c-1.162-0.035-1.426,0.408-1.411,1.567
	c0.088,7.038,0.078,14.077,0.083,21.116c0.001,1.928-0.029,1.947-1.977,1.956c-3.04,0.015-6.08,0.006-9.12-0.006
	c-0.465-0.002-1.042,0.022-1.003-0.678c0.034-0.6,0.515-0.748,1.031-0.75c1.92-0.009,3.84,0.009,5.76-0.017
	c1.888-0.025,1.932-0.042,1.937-1.823c0.02-6.48,0.018-12.959,0.001-19.439c-0.005-1.878-0.041-1.902-2.091-1.909
	c-4.64-0.016-9.28,0.014-13.919-0.017c-1.664-0.011-1.828-0.223-1.852-1.752c-0.027-1.727,0.157-1.924,2.156-1.928
	c7.28-0.014,14.56-0.006,21.839-0.006c0.56,0,1.12-0.011,1.68-0.007c0.923,0.007,1.219-0.458,1.21-1.356
	c-0.034-3.839-0.031-7.679-0.001-11.518c0.007-0.825-0.318-1.126-1.107-1.184c-1.014-0.075-2.299,0.461-2.977-0.34
	c-0.715-0.843-0.214-2.152-0.278-3.255c-0.536-9.18-0.199-18.369-0.26-27.554c-0.008-1.234-0.193-1.852-1.633-1.971
	c-4.417-0.367-8.6-1.688-12.737-3.66c-1.653,2.829-3.271,5.574-4.865,8.333c-2.32,4.013-4.602,8.049-6.951,12.046
	c-0.629,1.07-0.963,2.133-0.929,3.388c0.069,2.558,0.063,5.12,0.003,7.679c-0.028,1.167,0.425,1.522,1.55,1.501
	c4.091-0.078,3.339,0.345,3.403-3.225c0.033-1.839,0.046-3.681-0.003-5.519c-0.032-1.216,0.726-1.221,1.577-1.197
	c0.79,0.022,1.659-0.147,1.652,1.114c-0.02,3.68-0.019,7.36,0.002,11.039c0.008,1.322-0.825,1.603-1.881,1.617
	c-1.68,0.023-3.36,0.04-5.04,0.002c-0.932-0.021-1.27,0.372-1.25,1.278c0.036,1.679-0.005,3.36,0.011,5.04
	c0.009,1.001,0.104,1.905-1.414,1.878c-1.871-0.033-2.646-0.391-2.741-1.871c-0.098-1.514-0.013-3.039-0.03-4.558
	c-0.018-1.701-0.029-1.756-1.694-1.749c-4.846,0.022-3.961-0.531-4.052,3.793c-0.013,0.639,0.006,1.28,0.03,1.919
	c0.065,1.76-0.363,2.155-2.009,1.955c-0.67-0.081-1.026-0.363-1.05-1.038c-0.009-0.24-0.014-0.48-0.014-0.72
	c0-6-0.012-12,0.009-17.999c0.006-1.671,0.169-1.734,1.768-1.714c0.924,0.011,1.283,0.355,1.27,1.268
	c-0.03,2.079-0.013,4.16-0.005,6.24c0.009,2.421,0.013,2.422,2.535,2.431c0.88,0.003,1.761-0.036,2.639,0.006
	c1.041,0.05,1.406-0.42,1.394-1.43c-0.035-2.88,0.067-5.763-0.041-8.638c-0.06-1.6,0.385-2.956,1.166-4.297
	c3.577-6.14,7.128-12.296,10.684-18.449c1.108-1.917,1.107-1.929-0.579-3.177c-3.111-2.304-5.793-5.026-8.041-8.179
	c-0.275-0.385-0.468-0.849-1.093-1.109c-4.967,2.863-10.019,5.77-15.066,8.684c-6.023,3.478-12.023,6.995-18.08,10.414
	c-1.209,0.682-1.649,1.459-1.622,2.831c0.084,4.238,0.076,8.48,0.006,12.719c-0.021,1.27,0.4,1.669,1.64,1.649
	c3.599-0.059,7.199-0.016,10.799-0.025c0.624-0.002,1.202,0.021,1.726-0.564c0.589-0.658,1.508-0.314,2.288-0.332
	c0.594-0.013,0.836,0.367,0.842,0.925c0.005,0.56,0.01,1.12,0.01,1.68c0,7.28-0.019,14.56,0.008,21.839
	c0.015,3.924-0.506,3.331,3.484,3.363c4.08,0.033,8.16-0.008,12.24,0.014c2.072,0.011,2.147,0.1,2.174,2.176
	c0.022,1.68,0.004,3.36-0.008,5.04c-0.011,1.67-0.017,1.719,1.716,1.731c4.48,0.029,8.959,0.01,13.439,0.012
	c0.56,0,1.122-0.011,1.679,0.032c0.534,0.042,0.913,0.324,0.915,0.905c0.01,3.52,0.013,7.039,0.003,10.559
	c-0.003,0.971-0.666,1.152-1.469,1.149c-1.92-0.006-3.841,0.048-5.759-0.017c-1.107-0.037-1.631,0.285-1.557,1.477
	c0.075,1.195-0.047,2.403,0.031,3.598c0.079,1.211-0.307,1.743-1.6,1.683c-1.836-0.085-3.679-0.021-5.519-0.021
	c-4.08,0-8.16,0.013-12.24-0.006c-1.734-0.008-1.774-0.039-1.781-1.668c-0.02-5.28-0.025-10.56,0.004-15.839
	c0.009-1.601,0.374-1.889,1.768-1.856c1.022,0.024,1.446,0.513,1.384,1.493c-0.284,4.473-0.072,8.951-0.116,13.426
	c-0.033,3.298-0.258,2.992,2.928,2.998c3.36,0.006,6.72,0.018,10.08-0.005c1.806-0.012,1.823-0.043,1.849-1.894
	c0.024-1.68-0.017-3.36,0.009-5.04c0.028-1.797,0.053-1.822,1.923-1.849c1.84-0.027,3.68-0.02,5.52-0.007
	c1.105,0.008,1.551-0.488,1.538-1.614c-0.055-4.6,0.389-3.94-3.71-3.973c-3.12-0.025-6.24-0.032-9.36,0.008
	c-1.66,0.021-1.711,0.14-1.691,1.809c0.018,1.52,0.059,3.041,0.012,4.559c-0.041,1.338-0.461,1.646-1.765,1.63
	c-1.169-0.015-1.455-0.609-1.436-1.693c0.074-4.318,0.084-8.636,0.101-12.955c0.008-2.114-0.009-2.139-2.117-2.15
	c-3.6-0.02-7.2-0.021-10.8,0.001c-1.831,0.011-1.867,0.042-1.872,1.864c-0.017,6.48-0.007,12.959-0.007,19.439
	c0,0.56,0.014,1.12-0.003,1.68c-0.044,1.426-1.51,2.231-2.778,1.533c-0.527-0.29-0.427-0.803-0.432-1.261
	c-0.016-1.36-0.036-2.721,0-4.08c0.024-0.906-0.33-1.221-1.255-1.288c-4.496-0.329-4.494-0.357-4.501,4.05
	c0,0.32,0.007,0.64-0.002,0.96c-0.045,1.586-0.926,2.174-2.448,1.687c-0.494-0.158-0.574-0.504-0.575-0.905
	c-0.01-2.72,0.011-5.44-0.014-8.159c-0.01-1.031,0.614-1.145,1.41-1.14c1.84,0.011,3.68,0.027,5.52-0.008
	c1.801-0.034,1.847-0.069,1.852-1.938c0.018-6.56,0.018-13.12,0-19.679c-0.005-1.678-0.049-1.736-1.744-1.716
	c-4.837,0.057-3.919-0.675-3.986,3.801c-0.057,3.839-0.005,7.68-0.014,11.519c-0.006,2.406-0.016,2.412-2.322,2.426
	c-1.76,0.011-3.52,0.008-5.28,0.002c-1.061-0.004-1.715,0.243-1.332,1.555c0.196,0.671,0.14,1.425,0.14,2.142
	c0.008,8.24,0.005,16.479,0.005,24.719c0,0.56,0.028,1.123-0.022,1.679c-0.177,1.959-0.187,1.941,1.841,2.066
	c0.577,0.036,1.439-0.323,1.594,0.583c0.171,0.999,0.401,2.121-0.189,3.013c-0.355,0.537-1.194,0.198-1.814,0.238
	c-1.666,0.11-1.611,0.094-1.49,1.802c0.102,1.432,0.123,2.879,0.053,4.313c-0.065,1.344-0.473,1.565-1.848,1.583
	c-1.206,0.016-1.5-0.635-1.495-1.658c0.011-2.24-0.005-4.48,0.001-6.72c0.021-8.239,0.027-16.477,0.095-24.715
	c0.008-1.01-0.213-1.415-1.274-1.497c-4.574-0.355-4.572-0.384-4.572,4.207c0,6.72,0.006,13.44-0.004,20.159
	c-0.004,2.493-0.033,2.51-2.586,2.53c-1.52,0.012-3.04-0.016-4.56,0.007c-1.779,0.026-1.79,0.041-1.816,1.906
	c-0.02,1.44-0.063,2.883,0.012,4.319c0.063,1.216-0.51,1.455-1.585,1.476c-1.195,0.024-1.531-0.479-1.484-1.575
	c0.059-1.357,0.024-2.719,0.01-4.079c-0.021-2.028-0.028-2.033-2.155-2.05c-1.36-0.01-2.72,0.004-4.08-0.003
	c-2.709-0.014-2.717-0.021-2.73-2.628c-0.008-1.6-0.049-3.202,0.013-4.799c0.047-1.189-0.301-1.737-1.614-1.714
	c-3.839,0.067-7.679,0.002-11.519,0.033c-1.653,0.014-1.731,0.094-1.741,1.813c-0.028,4.56-0.005,9.12-0.012,13.679
	c-0.004,2.607-0.013,2.607-2.718,2.584c-0.4-0.004-0.801,0.002-1.2-0.018c-0.435-0.021-0.722-0.212-0.854-0.671
	c-0.317-1.103,0.093-2.371,1.135-3.072c0.475-0.319,0.586-0.72,0.586-1.209c0.006-3.92,0.004-7.84,0.008-11.76
	c0-0.696-0.219-1.085-0.967-1.406c-1.152-0.494-1.225-3.023-0.089-3.391c1.101-0.357,1.058-1.003,1.059-1.804
	c0.003-1.92,0.033-3.84-0.006-5.76c-0.023-1.154,0.497-1.527,1.603-1.508c0.99,0.017,1.477,0.317,1.455,1.378
	c-0.041,1.919-0.03,3.84-0.002,5.759c0.026,1.796,0.047,1.83,1.917,1.839c4.48,0.021,8.96,0.002,13.439,0.009
	c2.706,0.004,2.737,0.013,2.715,2.606c-0.014,1.675,0.218,3.369-0.152,5.021c-0.21,0.937,0.231,1.155,0.982,1.156
	c4.32,0.007,8.64,0.008,12.959-0.003c0.798-0.002,0.969-0.33,0.93-1.208c-0.302-6.789-0.274-13.584-0.013-20.373
	c0.045-1.161-0.265-1.433-1.236-1.433c-2-0.001-4.001-0.042-6,0.011c-1.209,0.032-1.747-0.393-1.726-1.662
	c0.051-3.119,0.034-6.24,0.007-9.359c-0.009-1.053,0.296-1.647,1.485-1.652c1.13-0.005,1.592,0.445,1.572,1.565
	c-0.035,1.999,0.028,4-0.019,5.999c-0.027,1.127,0.428,1.584,1.551,1.576c3.92-0.027,7.84,0.016,11.759-0.025
	c1.484-0.015,1.535-0.165,1.5-1.737c-0.042-1.838-0.103-3.678-0.061-5.515c0.037-1.6,0.251-1.799,1.818-1.839
	c1.919-0.048,3.841-0.053,5.759,0c1.13,0.031,1.554-0.396,1.54-1.538c-0.046-3.679,0.002-7.36-0.024-11.039
	c-0.011-1.623-0.052-1.657-1.813-1.662c-6.479-0.016-12.959-0.006-19.439-0.006c-1.36,0-2.721,0.04-4.079-0.014
	c-1.376-0.054-1.529-0.277-1.538-1.803c-0.01-1.547,0.064-1.692,1.553-1.697c7.44-0.024,14.879-0.012,22.319-0.013
	c3.28,0,6.56,0.019,9.84-0.008c1.895-0.016,1.934-0.049,1.948-1.84c0.028-3.6,0.027-7.2,0-10.8c-0.012-1.679-0.052-1.72-1.761-1.729
	c-4.56-0.024-9.12,0.001-13.679-0.013c-2.341-0.007-2.449-0.106-2.456-2.422c-0.017-5.68,0.057-11.361-0.044-17.039
	c-0.031-1.751,0.579-2.696,2.098-3.563c11.179-6.377,22.303-12.852,33.438-19.305c0.475-0.275,1.038-0.451,1.429-1.129
	c-1.957-3.943-3.167-8.224-3.598-12.704c-0.102-1.062-0.578-1.315-1.53-1.294c-1.999,0.044-4,0.012-6,0.012
	c-6.64,0-13.28-0.006-19.919,0.003c-2.568,0.003-2.476-0.323-2.521,2.407c-0.05,3.028,0.225,6.064-0.288,9.087
	c-0.14,0.824-0.245,1.344-1.234,1.323c-0.99-0.021-1.799-0.195-1.817-1.379c-0.033-2.159-0.018-4.32-0.02-6.479
	c-0.002-2.24-0.019-4.48,0.007-6.72c0.02-1.712,0.044-1.739,1.702-1.762c2.639-0.037,5.279-0.042,7.919-0.044
	c7.04-0.005,14.08,0.001,21.119-0.004c2.313-0.002,2.363-0.006,2.638-2.213c0.528-4.233,1.75-8.26,3.641-12.241
	c-11.131-6.324-22.161-12.591-33.257-18.895c-0.596,0.579-0.385,1.245-0.387,1.82c-0.019,6.239,0.022,12.479-0.055,18.718
	c-0.01,0.818,0.834,2.283-0.979,2.398c-1.93,0.122-2.335-0.363-2.345-2.62c-0.014-2.96-0.013-5.92-0.001-8.88
	c0.031-7.677,0.056-15.355,0.127-23.032c0.01-1.049-0.36-1.454-1.381-1.414c-1.038,0.04-2.081,0.046-3.119-0.001
	c-1.053-0.047-1.441,0.446-1.38,1.439c0.029,0.478,0.002,0.96,0.002,1.44c0,11.76,0,23.519,0,35.279c0,0.56,0.022,1.121,0.001,1.68
	c-0.035,0.931,0.447,1.281,1.322,1.277c2-0.008,4-0.017,6,0.012c1.779,0.026,1.779,0.048,1.796,1.695
	c0.019,1.783,0.019,1.796-1.891,1.822c-1.52,0.021-3.04,0.003-4.56,0.005c-2.859,0.002-2.667-0.217-2.667,2.782
	c0,6.64,0,13.28,0,19.919c0,0.56-0.017,1.12,0,1.68c0.031,0.985-0.434,1.494-1.417,1.523c-1.009,0.03-1.733-0.311-1.787-1.451
	c-0.026-0.559-0.016-1.12-0.016-1.679c-0.001-12.32,0.019-24.639-0.034-36.958c-0.005-1.091,0.757-2.437-0.01-3.195
	c-0.922-0.912-2.434-0.338-3.684-0.362c-3.119-0.058-6.24-0.039-9.359-0.01c-1.641,0.015-1.592,0.051-1.504,1.762
	c0.078,1.516,0.03,3.038,0.042,4.557c0.009,1.239-0.784,1.353-1.769,1.368c-1.007,0.015-1.472-0.34-1.449-1.384
	c0.037-1.679-0.019-3.36,0.014-5.039c0.018-0.904-0.315-1.287-1.256-1.281c-4.16,0.03-8.32,0.022-12.479,0.008
	c-0.811-0.003-1.151,0.343-1.142,1.15c0.019,1.76-0.036,3.521,0.007,5.279c0.028,1.152-0.633,1.259-1.535,1.263
	c-0.917,0.004-1.53-0.142-1.521-1.278c0.032-4.16,0.036-8.32-0.009-12.479c-0.012-1.141,0.586-2.557-1.398-2.97
	c-0.722-0.15-0.523-3.15,0.314-3.546c0.887-0.419,0.848-0.969,0.83-1.72c-0.047-1.919-0.077-3.841-0.013-5.759
	c0.045-1.363,0.383-1.523,1.833-1.566c1.178-0.036,1.512,0.489,1.505,1.582c-0.032,4.64-0.017,9.28-0.01,13.919
	c0.004,2.571,0.012,2.589,2.46,2.594c6.24,0.011,12.479,0.014,18.719-0.002c2.342-0.006,2.34-0.035,2.336-2.461
	c-0.003-1.68-0.045-3.361,0.014-5.039c0.049-1.378,0.385-1.583,1.786-1.622c1.132-0.031,1.591,0.441,1.571,1.561
	c-0.036,1.999,0.03,4.001-0.02,5.999c-0.029,1.141,0.467,1.509,1.56,1.584c4.027,0.277,4.11,0.227,4.11-3.828
	c0-2.96-0.054-5.922,0.043-8.878c0.042-1.277-0.386-1.719-1.624-1.706c-3.84,0.038-7.68,0.022-11.52,0.009
	c-1.1-0.004-1.537,0.356-1.428,1.583c0.163,1.826,0.11,3.676,0.065,5.514c-0.04,1.664-0.346,1.982-1.98,2.009
	c-2.799,0.047-5.6,0.045-8.399,0.002c-1.82-0.028-1.979-0.217-1.986-2.16c-0.017-4.56,0.001-9.12-0.002-13.679
	c-0.001-2.204-0.008-2.215-2.285-2.231c-2.16-0.015-4.32,0.017-6.48-0.01c-1.749-0.022-1.749-0.047-1.752-1.719
	c-0.004-1.711,0.02-1.784,1.695-1.792c4.96-0.025,9.919-0.009,14.879-0.01c0.56,0,1.121-0.023,1.68-0.001
	c0.998,0.039,1.452-0.39,1.433-1.419c-0.036-1.919-0.033-3.84,0.001-5.759c0.027-1.537,0.344-1.904,1.486-1.924
	c1.24-0.022,1.695,0.451,1.715,2c0.036,2.88,0.035,5.76,0.001,8.64c-0.022,1.861-0.146,1.958-2.126,1.986
	c-1.84,0.026-3.681,0.046-5.519-0.007c-1.189-0.034-1.491,0.47-1.427,1.598c0.207,3.673,0.171,7.35,0.021,11.027
	c-0.063,1.532-0.033,1.567,1.579,1.614c0.959,0.028,1.922-0.038,2.879,0.016c1.041,0.058,1.42-0.385,1.395-1.404
	c-0.045-1.839-0.03-3.68-0.005-5.519c0.027-2,0.044-2.034,2.002-2.043c4.64-0.021,9.28,0.004,13.919-0.013
	c1.924-0.007,1.895-0.034,1.849-1.972c-0.042-1.759,0.005-3.52-0.018-5.279c-0.015-1.12,0.5-1.57,1.611-1.548
	c1.999,0.04,4-0.018,5.999,0.015c1.131,0.019,1.545-0.416,1.477-1.583c-0.219-3.753-0.21-7.513-0.004-11.266
	c0.064-1.175-0.307-1.583-1.447-1.555c-1.919,0.047-3.84,0.037-5.759,0.003c-1.656-0.03-1.846-0.238-1.872-1.754
	c-0.026-1.52,0.255-1.897,1.73-1.92c2.879-0.045,5.76-0.047,8.639,0c1.585,0.026,1.943,0.383,1.946,2.042
	c0.004,1.832,0.253,3.685-0.167,5.497c-0.227,0.977,0.168,1.34,1.058,1.399c0.16,0.01,0.32,0.012,0.48,0.01
	c5.41-0.075,4.291,0.666,4.39-4.165c0.058-2.799-0.028-5.6,0.026-8.399c0.024-1.24-0.438-1.691-1.684-1.684
	c-6.88,0.038-13.76,0.036-20.639,0c-1.117-0.006-1.568,0.32-1.551,1.496c0.055,3.759,0.051,7.52,0.004,11.279
	c-0.015,1.19,0.509,1.517,1.591,1.486c1.598-0.047,3.202-0.061,4.798,0.023c1.356,0.072,1.612,0.46,1.638,1.832
	c0.022,1.118-0.363,1.919-1.578,1.961c-1.678,0.058-3.36,0.057-5.039,0.017c-1.014-0.025-1.442,0.352-1.407,1.395
	c0.053,1.598-0.033,3.201,0.025,4.799c0.043,1.172-0.482,1.504-1.579,1.517c-1.197,0.014-1.495-0.531-1.487-1.609
	c0.033-4.32,0.021-8.64,0.009-12.959c-0.006-2.228-0.022-2.242-2.245-2.25c-3.68-0.012-7.36-0.024-11.04,0.009
	c-1.554,0.014-1.534,0.066-1.498,1.671c0.041,1.838,0.094,3.679,0.047,5.516c-0.04,1.588-0.295,1.871-1.811,1.901
	c-2.879,0.055-5.76,0.062-8.639-0.006c-1.482-0.035-1.698-0.384-1.691-1.974c0.006-1.568,0.157-1.782,1.789-1.835
	c1.918-0.063,3.839-0.019,5.759-0.02c1.015,0,1.598-0.125,1.373-1.516c-0.278-1.717-0.149-3.508-0.119-5.265
	c0.032-1.856,0.361-2.164,2.312-2.174c4.56-0.024,9.12,0.001,13.679-0.012c2.062-0.006,2.076-0.025,2.083-2.111
	c0.011-3.44-0.045-6.881,0.027-10.319c0.027-1.273-0.424-1.695-1.657-1.645c-1.757,0.072-3.52,0.045-5.279,0.009
	c-1.939-0.039-2.039-0.134-2.051-2.054c-0.022-3.68-0.007-7.36-0.007-11.04c0-5.36,0.023-10.72-0.012-16.079
	c-0.012-1.841,0.024-1.884,2.099-1.88c0.812,0.001,1.15,0.351,1.134,1.154c-0.024,1.199-0.001,2.4-0.001,3.6
	c0,6.16,0,12.32,0,18.479c0,0.48,0.016,0.961-0.004,1.44c-0.111,2.685-0.114,2.685,2.478,2.689c1.68,0.003,3.36,0.024,5.04-0.003
	c0.921-0.015,1.291,0.397,1.28,1.298c-0.022,1.84-0.016,3.68,0,5.52c0.018,2.114,0.028,2.139,2.097,2.144
	c5.84,0.014,11.679,0.005,17.519,0.005c0.88,0,1.761-0.031,2.64,0.005c1.093,0.045,1.602-0.376,1.591-1.533
	c-0.037-3.76-0.032-7.52,0-11.279c0.008-0.984-0.274-1.452-1.356-1.441c-4.079,0.042-8.16,0.033-12.239,0.006
	c-0.905-0.006-1.232,0.317-1.304,1.24c-0.316,4.039-0.345,4.037,3.804,4.037c0.64,0,1.28-0.007,1.92,0.001
	c2.086,0.027,2.341,0.348,2.131,2.359c-0.092,0.886-0.501,1.317-1.359,1.321c-2.72,0.012-5.44,0.007-8.159,0.011
	c-1.12,0.002-1.579-0.594-1.536-1.665c0.079-1.993-0.214-4.002,0.162-5.979c0.194-1.017-0.251-1.31-1.13-1.312
	c-2-0.004-4.001,0.029-6-0.018c-1.635-0.038-1.806-0.189-1.813-1.797c-0.027-6-0.024-12-0.004-17.999
	c0.006-1.692,0.126-1.785,1.473-1.799c1.384-0.014,1.541,0.106,1.55,1.722c0.026,4.64,0.002,9.28,0.013,13.919
	c0.005,2.086,0.021,2.108,2.083,2.111c6.56,0.011,13.12,0.011,19.679,0c2.049-0.003,2.056-0.025,2.07-2.124
	c0.011-1.68,0.039-3.361-0.009-5.039c-0.031-1.062,0.253-1.659,1.459-1.638c2.639,0.045,5.28-0.019,7.919,0.026
	c1.319,0.023,1.684,0.471,1.679,1.752c-0.005,1.285-0.367,1.709-1.678,1.746c-1.679,0.047-3.36,0.039-5.039,0.005
	c-0.902-0.018-1.299,0.318-1.293,1.252c0.025,4,0.022,8,0.004,11.999c-0.004,0.815,0.339,1.17,1.139,1.142
	c0.479-0.016,0.96,0.003,1.44,0.003c9.12,0,18.24,0,27.359,0c0.48,0,0.961-0.028,1.439,0c0.933,0.056,1.263-0.394,1.259-1.289
	c-0.02-3.92-0.026-7.84,0.004-11.759c0.009-1.077-0.503-1.374-1.478-1.35c-1.599,0.04-3.2,0.013-4.8,0.009
	c-2.503-0.007-2.503-0.009-2.521-1.696c-0.019-1.823-0.019-1.824,2.635-1.83c1.52-0.003,3.044-0.075,4.558,0.021
	c1.313,0.083,1.67-0.48,1.613-1.685c-0.072-1.517-0.019-3.039-0.016-4.559c0.006-2.661,0.039-2.717,1.549-2.738
	c1.581-0.022,1.668,0.123,1.67,2.857c0.002,4.08,0.001,8.16,0.001,12.24c0,0.48,0.034,0.962-0.002,1.439
	c-0.072,0.951,0.388,1.251,1.282,1.229c1.599-0.038,3.2-0.013,4.8-0.007c2.692,0.01,2.703,0.012,2.708,2.61
	c0.009,4.4-0.007,8.8,0.006,13.199c0.007,2.241,0.025,2.259,2.27,2.269c3.52,0.016,7.04,0.021,10.56-0.003
	c1.99-0.014,2.021-0.044,2.03-2.002c0.019-4.72-0.011-9.44,0.017-14.159c0.01-1.587,0.468-2.027,1.739-1.903
	c0.913,0.089,1.483,0.486,1.472,1.506c-0.021,1.92,0.021,3.84-0.021,5.759c-0.039,1.793-0.072,1.807,1.747,1.838
	c1.439,0.024,2.881-0.025,4.32,0.016c1.441,0.041,1.732,0.341,1.779,1.633c0.053,1.446-0.326,1.971-1.69,2.033
	c-1.597,0.072-3.199,0.034-4.799,0.021c-1.052-0.009-1.447,0.257-1.425,1.524c0.115,6.637,0.115,13.278,0.024,19.916
	c-0.016,1.177,0.198,1.627,1.351,1.591c0.959-0.03,1.924-0.064,2.879,0.009c1.312,0.101,1.614-0.535,1.602-1.717
	c-0.044-4.559-0.026-9.12-0.014-13.679c0.006-2.352,0.022-2.367,2.421-2.373c4.48-0.011,8.96,0.011,13.439-0.01
	c2-0.01,2.044-0.043,2.037-1.991c-0.014-3.749,0.404-3.22-3.109-3.265c-1.44-0.019-2.882,0.04-4.319-0.02
	c-1.307-0.054-1.709-0.599-1.679-2.043c0.027-1.329,0.279-1.612,1.74-1.628c2.959-0.032,5.92,0.027,8.879-0.027
	c1.239-0.023,1.77,0.467,1.719,1.686c-0.079,1.915,0.225,3.853-0.16,5.741c-0.22,1.079,0.073,1.54,1.12,1.542
	c4.16,0.01,8.32-0.003,12.479,0.009c0.841,0.002,1.104-0.436,1.099-1.197c-0.011-1.92-0.029-3.84,0.009-5.76
	c0.037-1.917,0.111-1.995,2.094-1.999c7.28-0.015,14.56-0.006,21.839-0.006c0.56,0,1.121-0.03,1.68,0.001
	c0.929,0.051,1.268-0.386,1.263-1.285c-0.02-3.92-0.026-7.84,0.004-11.759c0.008-1.072-0.493-1.374-1.473-1.355
	c-1.999,0.038-4.001-0.04-5.999,0.023c-1.328,0.042-1.354-0.757-1.332-1.705c0.021-0.891-0.113-1.825,1.24-1.831
	c2.557-0.012,5.117-0.154,7.669-0.063c2.001,0.071,3.098,1.397,3.103,3.421c0.011,4.16-0.007,8.32,0.008,12.48
	c0.007,2.031,0.027,2.031,1.903,2.074c3.844,0.09,3.844,0.09,3.843-3.737c0-1.28,0.001-2.56,0.008-3.84
	c0.003-0.582,0.079-1.253,0.724-1.359c1.558-0.257,3.241-0.632,4.651,0.212c1.323,0.792,2.405,1.988,3.471,3.456
	c-1.474,0-2.948,0.039-4.42-0.013c-1.023-0.036-1.435,0.34-1.408,1.387c0.052,1.999-0.024,4,0.026,5.999
	c0.028,1.14-0.472,1.6-1.564,1.592c-1.92-0.014-3.84,0.024-5.76-0.008c-0.926-0.015-1.503,0.152-1.49,1.287
	c0.044,3.839,0.032,7.68,0.004,11.519c-0.007,0.907,0.307,1.293,1.245,1.273c1.919-0.041,3.84-0.039,5.759,0.001
	c1.664,0.035,1.767,0.131,1.784,1.792c0.032,3.04,0.031,6.08,0,9.12c-0.018,1.745-0.137,1.826-1.959,1.893
	c-0.479,0.017-0.96,0.003-1.44,0.003c-15.839,0.01-31.679,0.02-47.518,0.03c-0.4,0-0.804,0.036-1.199-0.006
	c-1.219-0.13-1.814,0.335-1.635,1.615c0.239,1.715-0.632,3.084-1.428,4.468c-3.549,6.166-7.108,12.326-10.66,18.49
	c-1.282,2.226-1.279,2.231,0.701,3.688c2.725,2.005,5.099,4.369,7.164,7.042c1.676,2.168,1.024,2.21,3.714,0.671
	c8.394-4.804,16.765-9.647,25.146-14.474c2.286-1.317,4.565-2.644,6.863-3.941c0.871-0.492,1.651-0.969,1.476-2.182
	c-0.155-1.073,0.469-1.361,1.44-1.349c2.56,0.032,5.12,0.01,7.68,0.01c2.88,0,5.76-0.009,8.64,0.002
	c3.344,0.013,3.009-0.345,3.025,3.142c0.006,1.28-0.014,2.56,0.005,3.84c0.029,1.938,0.039,1.97,2.025,1.974
	c7.2,0.015,14.399,0.008,21.599,0.005c3.516-0.001,3.253-0.223,3.253,3.229c0,1.36-0.025,2.72,0.007,4.08
	c0.04,1.68,0.112,1.777,1.768,1.802c2.639,0.039,5.282,0.078,7.918-0.018c1.278-0.046,1.845,0.343,2.013,1.639
	c0.213,1.645,0.278,1.758-1.388,1.889c-1.053,0.083-1.309,0.452-1.301,1.478c0.05,6.716,0.053,13.433-0.001,20.149
	c-0.008,1.014,0.166,1.541,1.261,1.43c0.158-0.016,0.322-0.017,0.479,0.003c0.691,0.085,1.646-0.337,2.011,0.357
	c0.439,0.834,0.289,1.886,0.086,2.823c-0.189,0.874-0.989,0.654-1.589,0.659c-2.88,0.02-5.76,0.005-8.64,0.011
	c-2.832,0.006-2.625-0.242-2.625,2.543c-0.002,9.92-0.001,19.839-0.001,29.759c0,0.56,0.019,1.121-0.005,1.68
	c-0.07,1.645-0.189,1.822-1.787,1.848c-2.799,0.047-5.6,0.015-8.399,0.013c-0.645-0.001-1.367,0.034-1.641-0.697
	c-0.314-0.836-0.332-1.744,0.038-2.566c0.224-0.498,0.811-0.427,1.287-0.428c1.84-0.006,3.68,0.014,5.52-0.009
	c1.887-0.024,1.925-0.041,1.939-1.823c0.027-3.6,0.031-7.2-0.003-10.799c-0.015-1.683-0.077-1.739-1.792-1.751
	c-3.84-0.028-7.68,0.009-11.519-0.019c-1.081-0.008-1.746,0.279-1.458,1.51c0.272,1.163-0.585,2.642,0.258,3.439
	c0.917,0.867,2.444,0.226,3.7,0.319c0.789,0.058,1.585,0.015,2.379,0.018c0.845,0.003,1.3,0.365,1.409,1.264
	c0.243,2-0.059,2.397-2.081,2.423c-1.44,0.018-2.88,0.016-4.32,0.005c-0.992-0.008-1.439,0.376-1.371,1.45
	c0.101,1.594,0.083,3.196,0.083,4.795c0.001,2.806-0.052,2.863-2.77,2.871c-3.92,0.011-7.84,0.003-11.76,0.003
	c-0.64,0-1.28-0.006-1.92,0.005c-0.319,0.006-0.778-0.082-0.933,0.089c-1.103,1.222-0.335,2.715-0.49,4.082
	c-0.095,0.835,0.509,1.077,1.24,1.078c2,0.003,4.001,0.051,5.999-0.003c1.133-0.031,1.568,0.388,1.531,1.53
	c-0.061,1.918,0.027,3.84-0.029,5.759c-0.034,1.145,0.417,1.639,1.548,1.521c0.079-0.008,0.16,0.002,0.24,0
	c1.276-0.035,2.799,0.353,3.769-0.211c1.282-0.745-0.065-2.304,0.166-3.533c0.203-1.083-0.018-2.238,0.073-3.35
	c0.117-1.427,0.62-1.743,2.005-1.71c1.292,0.03,1.349,0.843,1.335,1.789c-0.028,1.839,0.049,3.685-0.097,5.513
	c-0.098,1.228,0.363,1.547,1.468,1.514c1.599-0.047,3.201,0.03,4.799-0.021c1.381-0.044,1.541,0.762,1.519,1.855
	c-0.032,1.618-0.099,1.828-1.462,1.836c-5.599,0.034-11.2-0.011-16.799,0.033c-1.325,0.011-1.633-0.619-1.601-1.77
	c0.046-1.679-0.107-3.37,0.04-5.037c0.231-2.607-0.536-2.182-2.24-2.178c-1.6,0.003-3.2,0.027-4.8-0.007
	c-1.773-0.038-1.927-0.17-1.949-1.92c-0.037-2.879-0.032-5.76-0.002-8.64c0.019-1.864,0.052-1.904,1.886-1.915
	c4.4-0.025,8.8-0.008,13.199-0.009c0.56,0,1.12-0.005,1.68-0.004c1.044,0.003,1.459-0.459,1.185-1.512
	c-0.119-0.458-0.189-0.943-0.19-1.416c-0.011-10.24-0.008-20.479-0.008-30.719c0-0.16-0.009-0.321,0.009-0.48
	c0.14-1.272,0.698-1.862,1.746-1.853c1.073,0.009,1.598,0.547,1.603,1.878c0.017,4.799,0.001,9.599-0.029,14.398
	c-0.011,1.714-0.046,1.764,1.665,1.779c3.76,0.034,7.52,0.03,11.279,0.003c1.771-0.012,1.802-0.052,1.81-1.945
	c0.019-4.56-0.003-9.12,0.01-13.679c0.007-2.343,0.091-2.421,2.431-2.447c1.84-0.021,3.68-0.001,5.52-0.014
	c0.74-0.005,1.057-0.201,1.021-1.138c-0.265-6.863-0.393-13.73,0.057-20.591c0.066-1.005-0.37-1.284-1.227-1.285
	c-1.92-0.002-3.84,0.016-5.76-0.01c-1.959-0.027-2.01-0.079-2.039-2.029c-0.027-1.76-0.037-3.521,0.005-5.28
	c0.022-0.953-0.2-1.5-1.311-1.49c-4.08,0.036-8.16,0.03-12.24,0.004c-1.085-0.007-1.247,0.452-1.239,1.471
	c0.056,6.638,0.023,13.278,0.006,19.917c-0.004,1.528,0.001,1.617,1.583,1.631c3.92,0.036,7.84-0.005,11.76,0.022
	c0.997,0.007,1.386-0.341,1.451-1.385c0.242-3.891,0.279-3.888-3.714-3.89c-1.36-0.001-2.72-0.004-4.08-0.015
	c-0.771-0.006-1.186-0.385-1.186-1.177c-0.001-3.36,0.01-6.72-0.012-10.079c-0.008-1.168,0.732-1.23,1.598-1.226
	c0.851,0.004,1.629,0.022,1.62,1.201c-0.016,2.08,0.042,4.161-0.013,6.239c-0.028,1.051,0.37,1.402,1.397,1.374
	c1.999-0.055,4,0.016,5.999-0.025c1.028-0.021,1.427,0.395,1.417,1.413c-0.031,3.28-0.027,6.56-0.005,9.839
	c0.007,0.929-0.401,1.268-1.298,1.254c-1.919-0.029-3.84-0.03-5.76,0.003c-1.677,0.029-1.718,0.056-1.728,1.786
	c-0.025,4.4,0.012,8.8-0.021,13.199c-0.012,1.591-0.221,1.765-1.551,1.804c-1.429,0.042-1.634-0.105-1.645-1.631
	c-0.03-4.32-0.002-8.64-0.015-12.959c-0.007-2.185-0.024-2.197-2.279-2.204c-3.44-0.011-6.88-0.013-10.32,0.001
	c-2.238,0.009-2.262,0.025-2.264,2.263c-0.01,10.08,0.005,20.159-0.009,30.239c-0.005,3.69,0.443,3.33-3.321,3.339
	c-5.2,0.012-10.4,0.013-15.599-0.008C2883.376,1069.78,2882.573,1069.982,2881.718,1069.561z M2818.013,978.69
	c0.033,0.877,0.094,1.754,0.095,2.63c0.008,6.238,0.037,12.477-0.022,18.714c-0.012,1.294,0.375,1.829,1.694,1.933
	c3.85,0.303,7.557,1.244,11.114,2.768c1.844,0.79,1.88,0.792,2.886-0.959c4.02-6.998,8.015-14.01,12.033-21.009
	c0.366-0.639,0.602-1.267,0.594-2.026c-0.026-2.559-0.034-5.119,0.03-7.677c0.031-1.254-0.479-1.715-1.703-1.681
	c-1.918,0.054-3.839,0.044-5.758,0c-1.401-0.032-1.668-0.351-1.67-1.708c-0.001-1.373,0.354-1.936,1.496-1.956
	c3.038-0.052,6.078-0.019,9.117-0.015c1.211,0.002,1.714,0.684,1.719,1.824c0.005,1.12-0.139,2.263,0.043,3.353
	c0.203,1.22-0.986,2.726,0.21,3.555c0.996,0.69,2.489,0.15,3.76,0.223c0.08,0.005,0.16-0.007,0.24-0.001
	c1.152,0.093,1.544-0.469,1.515-1.578c-0.052-1.918-0.048-3.839,0.003-5.758c0.035-1.335,0.533-1.713,1.756-1.622
	c1.072,0.079,1.279,0.742,1.272,1.642c-0.014,1.999,0.018,3.999-0.007,5.998c-0.011,0.891,0.326,1.35,1.255,1.317
	c0.559-0.02,1.12,0.003,1.679,0.003c11.677,0,23.353,0,35.03,0c3.733,0,3.658-0.001,3.692-3.671
	c0.013-1.383-0.577-1.625-1.712-1.603c-1.839,0.036-3.679,0.039-5.518-0.001c-1.665-0.036-1.769-0.125-1.782-1.788
	c-0.03-3.919-0.01-7.838-0.01-11.757c0-4.663,0-4.645-4.582-4.217c-0.896,0.084-1.253,0.368-1.208,1.318
	c0.08,1.676,0.017,3.358,0.039,5.037c0.014,1.062-0.556,1.355-1.518,1.347c-0.925-0.008-1.555-0.193-1.528-1.309
	c0.037-1.519,0.029-3.039,0-4.558c-0.033-1.733-0.069-1.8-1.711-1.813c-3.839-0.03-7.678,0.026-11.516-0.029
	c-1.237-0.018-1.687,0.398-1.656,1.652c0.07,2.797,0.021,5.598,0.021,8.397c0,4.387-0.002,4.359,4.51,4.049
	c1.031-0.071,1.38-0.41,1.324-1.459c-0.102-1.914-0.053-3.836-0.084-5.754c-0.018-1.064,0.375-1.639,1.543-1.611
	c1.35,0.032,1.779,0.272,1.796,1.636c0.024,1.911,0.277,3.848-0.152,5.733c-0.263,1.155,0.21,1.441,1.204,1.437
	c1.679-0.008,3.361-0.045,5.038,0.017c1.415,0.052,1.655,0.412,1.619,2.031c-0.032,1.459-0.141,1.629-1.694,1.637
	c-5.518,0.03-11.037,0.03-16.555,0.001c-1.555-0.008-1.718-0.208-1.759-1.858c-0.042-1.678,0.004-3.359-0.014-5.038
	c-0.022-2.014-0.033-2.049-1.947-2.052c-9.517-0.013-19.035-0.013-28.552-0.001c-2.089,0.003-2.112,0.033-2.121,2.162
	c-0.018,4.079,0.006,8.158-0.01,12.236c-0.008,1.87-0.031,1.896-1.781,1.91c-2.799,0.022-5.598,0.023-8.397,0
	c-1.79-0.015-1.814-0.041-1.822-1.889c-0.017-3.919-0.01-7.838-0.003-11.757c0.005-2.97,0.076-2.662-2.782-2.666
	c-4.239-0.006-8.478,0.006-12.717-0.005c-2.389-0.006-2.405-0.019-2.411-2.381c-0.012-4.239-0.001-8.478-0.004-12.716
	c-0.002-2.971,0.162-2.638-2.771-2.659c-0.48-0.003-0.964,0.041-1.439-0.008c-1.109-0.114-1.606,0.28-1.556,1.468
	c0.074,1.756,0.037,3.518,0.012,5.278c-0.029,2.04-0.173,2.208-2.175,2.22c-4.159,0.026-8.318-0.016-12.476,0.015
	c-3.784,0.028-3.427-0.609-3.423,3.456c0.002,1.674,0.105,1.753,1.772,1.794c1.678,0.042,3.36-0.013,5.038,0.034
	c1.311,0.037,1.15,1.059,1.189,1.93c0.04,0.888-0.086,1.586-1.239,1.576c-2.799-0.026-5.598-0.021-8.397,0
	c-1.028,0.008-1.429-0.482-1.417-1.468c0.021-1.759-0.115-3.529,0.037-5.276c0.174-2.004-0.185-2.07-1.882-2.06
	c-3.679,0.022-7.358-0.01-11.037,0.014c-1.793,0.011-1.824,0.045-1.828,1.898c-0.015,6.318-0.013,12.636-0.002,18.955
	c0.004,2.145,0.026,2.16,2.318,2.163c6.158,0.008,12.316,0.004,18.475,0.002c3.138-0.001,3.138-0.002,3.041-3.182
	c-0.005-0.16-0.01-0.32-0.003-0.48c0.046-1.088-0.433-1.652-1.563-1.601c-0.479,0.021-0.96-0.001-1.439-0.001
	c-4.319,0-8.638,0.013-12.956-0.006c-2.091-0.01-2.11-0.038-2.124-2.175c-0.018-2.799-0.03-5.599,0.006-8.397
	c0.021-1.657,0.299-1.914,1.724-1.911c1.324,0.002,1.452,0.13,1.479,1.807c0.028,1.759,0.047,3.52-0.007,5.278
	c-0.035,1.144,0.215,1.743,1.569,1.732c6.877-0.057,13.756-0.047,20.634-0.006c1.193,0.007,1.515-0.477,1.484-1.571
	c-0.055-1.918,0.029-3.84-0.028-5.757c-0.035-1.178,0.49-1.552,1.585-1.493c1.328,0.072,1.599,0.278,1.636,1.767
	c0.048,1.918,0.036,3.839,0.009,5.758c-0.013,0.905,0.346,1.301,1.269,1.282c1.599-0.033,3.2-0.049,4.798,0.011
	c1.512,0.057,1.769,0.511,1.786,2.167c0.014,1.376-0.736,1.536-1.838,1.527c-3.919-0.032-7.838-0.012-11.757-0.012
	c-0.56,0-1.121-0.021-1.679,0.006c-1.545,0.075-1.569,0.106-1.561,1.667c0.013,2.639,0.043,5.278,0.04,7.917
	c-0.001,0.889,0.054,1.721,0.532,2.53c4.143,7.017,8.263,14.049,12.374,21.086c0.422,0.723,0.805,1.031,1.698,0.605
	c3.71-1.771,7.631-2.8,11.726-3.224c1.777-0.184,1.797-0.267,1.8-2.041c0.013-6.478,0.009-12.956,0-19.435
	c-0.001-0.623,0.14-1.295-0.396-1.808C2815.785,978.696,2816.899,978.693,2818.013,978.69z M2888.681,1021.524
	c0.572-0.028,0.964-0.063,1.357-0.064c2.879-0.006,5.758-0.014,8.636,0c0.924,0.005,1.438-0.172,1.431-1.333
	c-0.044-6.875-0.008-13.75,0.024-20.624c0.004-0.79-0.261-1.215-1.081-1.215c-1.119,0-2.24,0.028-3.358-0.02
	c-1.011-0.044-1.449,0.34-1.418,1.388c0.05,1.678,0.006,3.358,0.005,5.037c-0.001,1.002-0.51,1.408-1.497,1.423
	c-1.04,0.016-1.719-0.274-1.713-1.451c0.007-1.359,0.003-2.719-0.005-4.078c-0.014-2.346-0.317-2.588-2.623-2.308
	c-0.841,0.102-1.48,0.577-2.164,0.969c-7.97,4.57-15.932,9.153-23.897,13.732c-4.156,2.389-8.319,4.765-12.464,7.173
	c-1.442,0.838-1.447,0.886-0.77,2.417c1.661,3.758,2.789,7.651,3.027,11.77c0.051,0.885,0.427,1.321,1.326,1.301
	c0.639-0.015,1.279,0.003,1.919,0.004c12.234,0.018,24.468,0.036,36.702,0.055c2.505,0.004,2.31-0.149,2.312,2.363
	c0.004,8.076-0.041,16.153,0.019,24.229c0.033,4.439-0.92,3.74,3.977,3.792c1.65,0.017,1.623-0.043,1.623-1.738
	c-0.005-9.515-0.004-19.031,0.014-28.546c0.003-1.804,0.043-1.827-1.832-1.847c-2.399-0.025-4.798-0.003-7.197-0.011
	c-0.469-0.002-1.101,0.109-1.277-0.407c-0.284-0.833-0.281-1.774-0.025-2.597c0.24-0.771,1.084-0.505,1.686-0.507
	c4.158-0.019,8.316-0.01,12.474-0.01c1.28,0,2.559-0.01,3.838,0c0.979,0.008,1.452-0.35,1.372-1.437
	c-0.501-6.771-0.407-13.547-0.041-20.32c0.045-0.822-0.138-1.231-0.957-1.252c-0.879-0.023-1.759-0.02-2.638-0.016
	c-2.377,0.011-2.388,0.013-2.392,2.302c-0.008,4.558,0.014,9.116-0.011,13.674c-0.009,1.714-0.053,1.755-1.754,1.773
	c-3.038,0.032-6.078,0.051-9.116-0.001C2888.725,1025.084,2889.25,1025.899,2888.681,1021.524z M2816.622,1003.413
	c-18.021,0.053-34.042,14.269-33.948,34.078c0.094,19.666,16.008,33.855,34.247,33.792c18.71-0.065,33.88-15.373,33.817-33.973
	C2850.675,1018.508,2835.38,1003.311,2816.622,1003.413z M2846.591,1056.746c-2.624,3.905-5.708,7.121-9.436,9.685
	c-0.739,0.509-0.9,0.942-0.399,1.74c0.89,1.42,1.676,2.905,2.501,4.365c3.538,6.259,7.066,12.522,10.621,18.771
	c0.41,0.72,0.625,1.679,1.792,1.671c3.837-0.024,7.674-0.015,11.511-0.007c0.698,0.001,1.024-0.303,0.994-1.007
	c-0.017-0.399,0.002-0.799,0.007-1.199c0.029-2.514,0.531-3.13,3.223-3.846c0,0.661,0,1.291,0,1.921
	c-0.001,2.078-0.034,4.157,0.011,6.235c0.024,1.1-0.372,1.64-1.52,1.606c-1.278-0.037-2.558-0.026-3.836-0.002
	c-4.014,0.077-3.575-0.767-3.639,3.745c-0.016,1.152,0.429,1.538,1.547,1.526c3.837-0.04,7.674,0.007,11.511-0.024
	c1.759-0.014,1.714-0.061,1.7-1.968c-0.032-4.716-0.013-9.432-0.03-14.148c-0.004-1.042,0.327-1.659,1.512-1.642
	c1.35,0.019,1.825,0.273,1.835,1.6c0.033,4.794,0.028,9.59-0.067,14.383c-0.034,1.715-0.169,1.757,1.527,1.776
	c3.117,0.035,6.235,0.01,9.353,0.01c4.156,0,4.139-0.013,3.769-4.061c-0.088-0.961-0.505-1.217-1.357-1.205
	c-1.678,0.023-3.357,0.011-5.036,0.002c-2.393-0.012-2.407-0.016-2.411-2.329c-0.009-4.876-0.085-9.754,0.042-14.627
	c0.044-1.686-0.486-2.681-1.98-3.355c-1.013-0.457-1.945-1.095-2.91-1.657C2867.22,1068.763,2857.015,1062.818,2846.591,1056.746z
	 M2751.247,988.559c0,2.471,0.112,4.556-0.033,6.624c-0.132,1.88,0.403,3.034,2.2,3.937c3.49,1.754,6.829,3.807,10.229,5.738
	c7.079,4.021,14.156,8.047,21.237,12.064c1.835,1.041,1.852,1.039,3.17-0.719c2.271-3.03,4.894-5.712,8.046-7.809
	c1.16-0.772,1.129-1.338,0.469-2.45c-4.69-7.895-9.337-15.815-13.912-23.776c-0.745-1.296-1.606-1.688-3.037-1.679
	c-8.71,0.058-17.421,0.029-26.131,0.03c-0.479,0-0.959,0.003-1.438,0.017c-0.818,0.024-1.118,0.429-0.977,1.245
	C2751.48,984.161,2751.114,986.563,2751.247,988.559z"/>
<path fill="#2291A5" d="M2737.984,1248.837c-4.879,0-9.758,0.011-14.637-0.005c-2.163-0.007-2.186-0.033-2.2-2.099
	c-0.021-2.959,0.029-5.919-0.021-8.878c-0.019-1.153,0.44-1.547,1.559-1.533c1.061,0.013,1.693,0.323,1.675,1.484
	c-0.031,1.998,0.03,4.001-0.1,5.992c-0.063,0.972,0.24,1.33,1.14,1.331c1.12,0.001,2.241-0.031,3.359,0.015
	c1.076,0.044,1.378-0.497,1.36-1.471c-0.035-1.839-0.009-3.679-0.009-5.518c0-4.799,0.015-9.598-0.009-14.397
	c-0.009-1.721-0.063-1.76-1.731-1.792c-1.759-0.034-3.52,0.016-5.279-0.015c-1.878-0.033-1.908-0.064-1.944-1.872
	c-0.031-1.519-0.003-3.039-0.008-4.559c-0.008-2.515-0.01-2.524-2.439-2.527c-4.719-0.006-9.438-0.002-14.157-0.002
	c-0.4,0-0.808,0.052-1.198-0.012c-0.641-0.105-1.563,0.393-1.813-0.628c-0.148-0.606-0.043-1.272-0.067-1.91
	c-0.028-0.728,0.423-0.895,1.033-1.035c1.01-0.232,0.716-1.117,0.719-1.78c0.022-4.399,0.011-8.798,0.012-13.197
	c0-0.56,0.005-1.12,0.006-1.68c0.002-1.032,0.583-1.376,1.54-1.372c0.976,0.004,1.498,0.404,1.494,1.42
	c-0.007,2,0.045,4-0.011,5.998c-0.031,1.123,0.37,1.571,1.518,1.559c3.999-0.041,7.998-0.038,11.997-0.001
	c1.054,0.01,1.38-0.424,1.376-1.425c-0.024-6.718-0.036-13.437,0.01-20.155c0.008-1.199-0.462-1.507-1.56-1.472
	c-1.917,0.061-3.839-0.016-5.758,0.026c-1.208,0.026-1.803-0.524-1.809-1.694c-0.017-3.119-0.047-6.239,0.01-9.357
	c0.024-1.337,0.563-1.786,1.738-1.771c1.165,0.014,1.552,0.401,1.594,1.877c0.05,1.758,0.023,3.519-0.024,5.277
	c-0.052,1.923-0.08,1.935,1.91,1.955c1.839,0.018,3.68,0.041,5.518-0.007c1.144-0.03,1.595,0.494,1.581,1.576
	c-0.024,1.919,0.008,3.839-0.058,5.756c-0.053,1.546-0.085,1.594,1.464,1.634c1.519,0.039,3.04-0.018,4.559,0.017
	c1.637,0.038,1.731,0.165,1.715,1.814c-0.015,1.612-0.058,1.669-1.824,1.702c-1.439,0.027-2.88-0.017-4.319,0.012
	c-1.7,0.035-1.611,0.053-1.59,1.738c0.06,4.798,0.068,9.597,0.037,14.395c-0.01,1.533-0.437,1.916-2.079,1.933
	c-3.839,0.041-7.678,0.014-11.517,0.015c-0.8,0-1.6-0.009-2.399,0.002c-2.052,0.027-2.052,0.031-2.075,2.139
	c-0.002,0.16,0,0.32,0,0.48c0.004,2.63,0.004,2.639,2.623,2.641c6.319,0.005,12.637,0.01,18.956-0.003
	c2.23-0.005,2.247-0.029,2.254-2.284c0.013-3.999-0.002-7.998,0.005-11.997c0.008-4.234-0.385-3.777,3.922-3.797
	c1.36-0.006,2.719,0.004,4.079-0.012c0.775-0.009,1.03-0.276,0.96-1.184c-0.377-4.946-0.122-9.906-0.152-14.861
	c-0.009-1.51,0.281-1.711,1.658-1.701c1.337,0.01,1.525,0.169,1.535,1.783c0.027,4.639,0.014,9.278,0.009,13.917
	c-0.003,2.207-0.044,2.058,2.124,2.058c1.6,0,3.2-0.026,4.799,0.008c1.813,0.038,2.15,0.327,2.182,2.059
	c0.033,1.755,0.105,3.536-0.145,5.261c-0.179,1.233,0.137,1.642,1.277,1.635c0.4-0.002,0.802,0.032,1.199,0
	c0.977-0.078,1.251,0.442,1.198,1.308c-0.034,0.558-0.002,1.12-0.027,1.679c-0.026,0.572-0.356,0.857-0.923,0.857
	c-1.519,0-3.04,0.022-4.558-0.022c-1.004-0.029-1.361-0.705-1.362-1.619c-0.001-1.839-0.024-3.679,0.021-5.518
	c0.047-1.911,0.077-1.933-1.921-1.943c-3.599-0.018-7.198-0.019-10.798,0c-1.991,0.011-2.02,0.036-2.029,1.98
	c-0.019,4.239-0.011,8.478-0.004,12.717c0.005,3.508,0.183,3.208-3.27,3.21c-1.52,0.001-3.039,0-4.559,0.006
	c-0.87,0.003-1.402,0.285-1.111,1.304c0.246,0.861,0.282,1.768,0.031,2.607c-0.373,1.245,0.303,1.352,1.224,1.351
	c4.719-0.005,9.438-0.01,14.157,0.002c2.48,0.006,2.486,0.022,2.494,2.569c0.008,2.479-0.034,4.96,0.015,7.438
	c0.023,1.16-0.481,1.547-1.581,1.537c-1.07-0.01-1.673-0.376-1.654-1.522c0.026-1.599-0.115-3.215,0.08-4.792
	c0.158-1.28-0.349-1.545-1.412-1.532c-5.45,0.066-4.34-0.635-4.399,4.164c-0.07,5.758-0.028,11.517-0.009,17.276
	c0.005,1.687,0.044,1.727,1.734,1.732c5.919,0.019,11.837,0.001,17.756,0.011c2.158,0.004,2.094,0.033,2.128,2.092
	c0.021,1.275-0.45,1.648-1.679,1.626c-3.598-0.062-7.198-0.022-10.797-0.021C2740.864,1248.837,2739.424,1248.837,2737.984,1248.837
	z"/>
<path fill="#2190A4" d="M2733.153,1045.133c0,6.96,0,13.919-0.001,20.879c0,0.56,0.008,1.121-0.03,1.679
	c-0.063,0.949-0.727,1.135-1.516,1.131c-0.803-0.004-1.433-0.24-1.469-1.185c-0.024-0.639-0.023-1.279-0.023-1.919
	c-0.001-9.599,0-19.199-0.002-28.798c0-0.64,0.004-1.28-0.024-1.919c-0.028-0.659-0.383-1.02-1.057-1.036
	c-0.32-0.008-0.64-0.016-0.959-0.016c-6.56-0.001-13.119-0.01-19.679,0.005c-2.083,0.005-2.104,0.033-2.115,2.169
	c-0.018,3.52,0.031,7.04-0.023,10.559c-0.019,1.23,0.396,1.735,1.657,1.675c1.596-0.075,3.2-0.055,4.799-0.004
	c1.369,0.044,1.566,0.317,1.569,1.798c0.002,1.424-0.259,1.808-1.559,1.862c-1.677,0.07-3.36,0.053-5.039,0.012
	c-1.001-0.024-1.433,0.326-1.422,1.38c0.039,3.759,0.039,7.52-0.001,11.279c-0.011,1.009,0.301,1.456,1.362,1.427
	c1.918-0.051,3.84-0.044,5.759-0.002c1.694,0.037,1.962,0.273,1.994,1.957c0.036,1.917-0.004,3.838-0.108,5.752
	c-0.058,1.06,0.336,1.363,1.358,1.421c4.523,0.256,4.521,0.286,4.521-4.282c0-2.8,0.023-5.6-0.009-8.399
	c-0.019-1.672-0.058-1.695-1.791-1.722c-1.839-0.029-3.68,0.023-5.519-0.017c-1.51-0.033-1.765-0.299-1.796-1.591
	c-0.035-1.455,0.305-1.873,1.763-1.911c1.839-0.048,3.68,0.011,5.519-0.02c1.749-0.029,1.81-0.067,1.823-1.703
	c0.03-3.68-0.025-7.36,0.028-11.039c0.017-1.157-0.394-1.546-1.534-1.504c-1.917,0.071-3.84,0.055-5.759,0.006
	c-1.514-0.039-1.847-0.424-1.842-1.861c0.005-1.354,0.433-1.913,1.849-1.948c2.878-0.07,5.76-0.075,8.638,0.001
	c1.479,0.039,1.822,0.504,1.836,2.196c0.031,3.679,0.01,7.359,0.01,11.039c0,6.48-0.035,12.96,0.037,19.438
	c0.011,0.997-0.798,2.162,0.042,2.949c0.856,0.802,2.139,0.313,3.228,0.33c3.199,0.052,6.399,0.041,9.599,0.008
	c1.72-0.018,1.693-0.06,1.66-1.724c-0.036-1.839-0.052-3.68-0.011-5.519c0.033-1.495,0.323-1.801,1.854-1.849
	c1.998-0.062,4-0.037,5.999-0.014c0.922,0.011,1.254-0.359,1.214-1.296c-0.086-1.995-0.129-3.996-0.085-5.992
	c0.029-1.327,0.438-1.52,1.856-1.523c1.245-0.003,1.186,0.789,1.152,1.603c-0.124,2.956,0.535,5.879,0.345,8.841
	c-0.121,1.904-0.175,2.025-2.073,2.053c-1.76,0.026-3.52-0.017-5.28,0.013c-1.716,0.029-1.757,0.052-1.768,1.725
	c-0.026,3.92-0.009,7.839-0.009,11.759c0,0.56-0.031,1.122,0.005,1.679c0.07,1.072-0.3,1.654-1.48,1.639
	c-1.334-0.017-1.693-0.249-1.723-1.665c-0.034-1.595-0.057-3.207,0.143-4.783c0.114-0.893-0.107-1.183-0.9-1.227
	c-0.399-0.022-0.8-0.014-1.199-0.014c-6.48-0.001-12.959-0.006-19.439,0.002c-2.247,0.003-2.221,0.017-2.158,2.172
	c0.047,1.599,0.062,3.201,0.007,4.799c-0.056,1.61-0.242,1.791-1.818,1.809c-2.879,0.033-5.76,0.037-8.639-0.003
	c-1.526-0.021-1.716-0.289-1.684-1.896c0.029-1.458,0.116-1.575,1.697-1.606c1.919-0.037,3.84,0.021,5.759-0.021
	c1.525-0.034,1.539-0.161,1.447-1.644c-0.23-3.672-0.165-7.351-0.033-11.025c0.055-1.541,0.071-1.655-1.419-1.695
	c-1.839-0.049-3.68,0.006-5.519-0.019c-1.876-0.026-1.898-0.045-1.927-1.847c-0.029-1.76,0.002-3.52-0.011-5.28
	c-0.006-0.844,0.211-1.704-1.14-1.937c-0.816-0.14-0.983-3.061-0.2-3.229c1.692-0.364,1.335-1.519,1.337-2.571
	c0.013-7.12,0.007-14.239,0.007-21.359c0-0.48,0.034-0.963-0.005-1.439c-0.098-1.219,0.402-1.757,1.661-1.717
	c1.838,0.058,3.68,0.034,5.519,0.006c1.871-0.028,1.801-0.045,1.689-1.84c-0.109-1.753-0.109-3.518-0.054-5.275
	c0.046-1.484,0.403-1.809,1.623-1.84c1.342-0.034,1.676,0.28,1.707,1.959c0.033,1.836-0.009,3.677-0.106,5.511
	c-0.054,1.008,0.25,1.497,1.309,1.493c4.08-0.018,8.16-0.024,12.239,0.003c1.106,0.007,1.323-0.582,1.305-1.517
	c-0.032-1.759-0.019-3.52-0.004-5.28c0.017-2.079,0.113-2.198,1.588-2.169c1.374,0.026,1.436,0.083,1.443,2.073
	c0.015,4.24,0.005,8.479,0.005,12.719C2733.153,1039.213,2733.153,1042.173,2733.153,1045.133z"/>
<path fill="#2291A5" d="M2741.198,1105.797c-5.118,0-10.236-0.013-15.354,0.008c-1.65,0.007-1.557,0.045-1.526,1.674
	c0.068,3.517,0.056,7.036,0.024,10.555c-0.016,1.775-0.069,1.812,1.769,1.816c6.557,0.017,13.115,0.007,19.672,0.007
	c0.88,0,1.762-0.041,2.638,0.014c1.327,0.083,1.523,0.351,1.532,1.851c0.009,1.546-0.142,1.778-1.497,1.822
	c-1.598,0.052-3.2,0.059-4.797,0.001c-1.115-0.041-1.597,0.345-1.549,1.508c0.066,1.597-0.027,3.199,0.026,4.797
	c0.038,1.143-0.444,1.568-1.561,1.555c-1.059-0.012-1.69-0.349-1.671-1.504c0.027-1.678-0.057-3.365,0.092-5.032
	c0.092-1.024-0.307-1.299-1.166-1.299c-4.158-0.003-8.316-0.004-12.475,0.004c-0.922,0.002-1.146,0.43-1.078,1.375
	c0.136,1.91,0.041,3.835,0.094,5.753c0.034,1.241-0.513,1.7-1.732,1.665c-1.997-0.058-3.998,0.011-5.997-0.023
	c-1.021-0.018-1.431,0.372-1.37,1.421c0.22,3.832,0.201,7.669,0.01,11.502c-0.05,0.992,0.191,1.416,1.271,1.493
	c4.592,0.327,4.589,0.36,4.59-4.212c0-1.12,0.03-2.24-0.001-3.358c-0.032-1.152,0.687-1.249,1.572-1.254
	c0.904-0.005,1.622,0.183,1.629,1.26c0.012,1.998,0.116,4.008-0.065,5.991c-0.114,1.242,0.288,1.572,1.391,1.557
	c1.919-0.025,3.839-0.03,5.758,0.003c1.671,0.029,1.703,0.057,1.722,1.793c0.029,2.639,0.032,5.278-0.002,7.917
	c-0.02,1.513-0.34,1.83-1.563,1.804c-1.179-0.025-1.431-0.326-1.463-1.907c-0.029-1.439-0.083-2.884,0.015-4.317
	c0.09-1.318-0.49-1.627-1.684-1.615c-4.558,0.045-9.116,0.024-13.674,0.015c-2.638-0.005-2.783-0.095-2.738-2.67
	c0.081-4.708-0.287-9.423,0.208-14.124c0.101-0.957-0.388-1.289-1.255-1.288c-2.159,0.002-4.318-0.001-6.478-0.003
	c-0.4,0-0.802,0.024-1.199-0.006c-0.611-0.047-1.508,0.266-1.717-0.443c-0.238-0.806-0.198-1.769-0.01-2.603
	c0.142-0.629,0.928-0.469,1.471-0.472c2.479-0.011,4.958-0.006,7.437-0.006c2.879,0,5.758,0.022,8.636-0.009
	c1.764-0.019,1.839-0.079,1.854-1.695c0.032-3.598,0.033-7.197-0.001-10.796c-0.015-1.639-0.092-1.711-1.833-1.721
	c-4.718-0.027-9.437,0.004-14.155-0.017c-1.772-0.008-2.115-0.425-2.044-2.075c0.042-0.976,0.418-1.467,1.446-1.451
	c1.839,0.029,3.679,0.027,5.518-0.002c1.979-0.032,2.073-0.12,2.083-1.996c0.017-3.438,0.011-6.877-0.002-10.316
	c-0.008-2.01-0.023-2.035-1.96-2.058c-2.319-0.028-4.638,0.018-6.957-0.017c-1.597-0.024-1.619-0.088-1.616-1.876
	c0.003-1.753,0.003-1.792,1.672-1.806c3.358-0.028,6.718-0.031,10.076,0c1.937,0.018,2.166,0.241,2.173,2.266
	c0.016,4.637-0.005,9.274-0.052,13.911c-0.018,1.814-0.05,1.892,1.817,1.885c4.793-0.017,3.952,0.521,3.981-3.853
	c0.047-6.957,0.005-13.914,0.017-20.872c0.004-2.106,0.028-2.125,2.116-2.138c2.799-0.018,5.599,0.033,8.396-0.019
	c1.153-0.021,1.531,0.433,1.51,1.551c-0.052,2.798-0.041,5.598-0.008,8.396c0.014,1.147-0.565,1.604-1.609,1.574
	c-0.932-0.026-1.464-0.476-1.445-1.496c0.029-1.599-0.045-3.201,0.019-4.797c0.047-1.185-0.292-1.828-1.603-1.691
	c-1.335,0.139-2.94-0.519-3.953,0.306c-1.023,0.833-0.082,2.38-0.172,3.618c-0.22,3.021,0.209,6.065-0.223,9.086
	c-0.181,1.265,0.669,1.223,1.492,1.224c2.879,0.005,5.759,0.042,8.636-0.013c1.501-0.029,3.422,0.663,4.389-0.325
	c0.911-0.93,0.082-2.817,0.197-4.282c0.069-0.874-0.021-1.76,0.023-2.638c0.071-1.394,0.44-1.703,1.712-1.707
	c1.148-0.003,1.534,0.565,1.509,1.647c-0.041,1.758-0.022,3.518-0.006,5.278c0.019,2.02,0.03,2.034,2.17,2.04
	c3.838,0.011,7.677,0.003,11.515,0.004c0.56,0,1.12-0.004,1.679,0.014c0.97,0.031,1.441,0.52,1.434,1.514
	c-0.007,0.972,0.131,2.015-1.183,2.245c-0.623,0.109-1.273,0.08-1.912,0.081C2750.954,1105.799,2746.076,1105.796,2741.198,1105.797
	z"/>
<path fill="#2290A5" d="M2711.901,1233.635c0-3.279-0.004-6.558,0.002-9.837c0.003-1.784,0.01-1.81-1.884-1.835
	c-2.239-0.03-4.479,0.011-6.718-0.014c-1.84-0.021-1.845-0.05-1.838-1.897c0.007-1.755,0.007-1.778,1.932-1.789
	c3.199-0.019,6.398-0.016,9.597-0.001c2.267,0.011,2.379,0.115,2.392,2.487c0.009,1.677-0.02,3.357-0.119,5.03
	c-0.061,1.04,0.331,1.464,1.355,1.447c1.599-0.026,3.199,0.026,4.798-0.009c1.228-0.027,1.701,0.504,1.673,1.733
	c-0.038,1.642-0.197,2.024-1.584,2.097c-1.675,0.089-3.358,0.053-5.037,0.025c-0.935-0.016-1.208,0.359-1.184,1.294
	c0.175,6.713,0.198,13.428-0.011,20.141c-0.036,1.145,0.311,1.62,1.458,1.601c1.919-0.033,3.839-0.038,5.758,0.005
	c1.662,0.037,1.833,0.18,1.857,1.772c0.045,2.958,0.045,5.918,0.001,8.877c-0.025,1.697-0.285,1.939-1.963,1.977
	c-1.918,0.043-3.839,0.039-5.758,0.002c-1.031-0.019-1.419,0.387-1.358,1.428c0.219,3.752,0.218,7.51,0.003,11.262
	c-0.068,1.194,0.403,1.574,1.505,1.557c1.919-0.031,3.839-0.039,5.758,0.006c1.613,0.038,1.822,0.201,1.809,1.815
	c-0.039,4.872,0.248,9.752-0.163,14.614c-0.095,1.131,0.261,1.469,1.25,1.472c1.919,0.004,3.839-0.014,5.758,0.008
	c1.927,0.022,1.927,0.039,1.963,2.041c0.003,0.16,0.023,0.324-0.003,0.479c-0.126,0.742,0.384,1.657-0.458,2.197
	c-0.687,0.441-2.232-0.059-2.939-0.979c-0.365-0.476-0.793-0.478-1.247-0.48c-3.999-0.015-7.998-0.005-11.996-0.018
	c-0.701-0.002-1.296,0.171-1.525,0.885c-0.189,0.59-0.61,0.636-1.107,0.682c-1.54,0.141-1.797-0.073-1.853-1.617
	c-0.116-3.166-0.092-3.191,3.07-3.194c1.599-0.001,3.199-0.029,4.798,0.005c0.935,0.02,1.26-0.402,1.256-1.295
	c-0.02-3.919-0.027-7.838,0.005-11.756c0.008-1.076-0.499-1.392-1.475-1.349c-0.958,0.042-1.92-0.021-2.878,0.016
	c-1.49,0.057-1.522,0.134-1.485,1.723c0.043,1.837,0.043,3.676,0.081,5.513c0.025,1.193-0.496,1.755-1.726,1.73
	c-1.918-0.04-3.84,0.042-5.757-0.025c-1.253-0.044-1.692,0.44-1.656,1.681c0.068,2.397-0.046,4.8,0.043,7.196
	c0.049,1.308-0.628,1.382-1.625,1.393c-1.019,0.011-1.674-0.124-1.656-1.395c0.049-3.598-0.025-7.198,0.02-10.796
	c0.018-1.481,0.321-1.713,1.927-1.75c1.678-0.039,3.359,0.004,5.038-0.014c1.979-0.021,2.002-0.032,2.008-1.951
	c0.014-4.479,0.003-8.957,0.004-13.436c0-2.079-0.027-4.159,0.018-6.238c0.022-1.024-0.374-1.435-1.403-1.412
	c-1.918,0.043-3.839,0.04-5.758,0c-1.601-0.033-1.839-0.3-1.857-1.791c-0.02-1.583,0.333-2.025,1.91-2.036
	c4.558-0.034,9.117-0.009,13.676-0.015c2.391-0.003,2.391-0.011,2.402-2.277c0.014-2.986,0.014-2.988-3.009-2.99
	c-4.878-0.002-9.757,0.009-14.635-0.006c-1.672-0.005-2.553-1.491-1.821-3.013c0.259-0.538,0.769-0.5,1.241-0.502
	c2.319-0.009,4.639,0.007,6.958-0.01c2.25-0.017,2.274-0.031,2.261-2.252c-0.019-3.021,0.561-3.027-2.911-3.012
	c-2.079,0.009-4.161-0.058-6.237,0.019c-1.524,0.056-1.382-0.916-1.389-1.896c-0.008-1.008-0.089-1.908,1.435-1.845
	c2.475,0.102,4.958,0.056,7.436,0.014c1.571-0.026,1.587-0.089,1.587-1.654c0.001-3.279,0-6.557,0-9.836
	C2711.911,1233.635,2711.906,1233.635,2711.901,1233.635z"/>
<path fill="#2291A5" d="M2928.728,971.396c-1.471,0-2.878,0-4.285,0c-3.597,0-7.195-0.02-10.792,0.011
	c-1.542,0.013-1.503,0.061-1.5,1.65c0.014,6.634,0.011,13.267-0.006,19.901c-0.004,1.552-0.041,1.552,1.543,1.616
	c4.255,0.173,4.255,0.173,4.255-4.001c0-1.039-0.025-2.079,0.007-3.118c0.047-1.531,0.233-1.704,1.612-1.674
	c1.334,0.03,1.552,0.228,1.591,1.776c0.045,1.758-0.007,3.517,0.018,5.276c0.024,1.69,0.043,1.707,1.712,1.735
	c1.519,0.025,3.039-0.037,4.556,0.022c1.286,0.05,1.56,0.433,1.553,1.853c-0.007,1.396-0.282,1.803-1.606,1.811
	c-5.835,0.036-11.671,0.003-17.507,0.025c-0.981,0.004-1.221-0.485-1.211-1.338c0.021-1.838,0.012-3.677,0.002-5.516
	c-0.011-2.246-0.017-2.261-2.183-2.268c-3.597-0.012-7.195-0.003-10.792-0.003c-7.435,0-14.87-0.064-22.303,0.041
	c-2.108,0.03-3.927-0.286-5.459-1.802c-0.448-0.443-1.01-0.771-1.65-1.248c0.733-0.646,1.552-0.352,2.266-0.353
	c12.311-0.02,24.622-0.015,36.933-0.015c0.479,0,0.959,0.005,1.439-0.001c2.198-0.029,2.029-0.026,1.968-2.265
	c-0.125-4.633-0.091-9.272-0.038-13.907c0.018-1.517,0.5-1.868,2.13-1.902c1.758-0.037,3.517-0.005,5.276-0.013
	c0.398-0.002,0.976,0.123,1.166-0.087c1.098-1.211,0.342-2.711,0.49-4.079c0.111-1.023-0.656-1.1-1.438-1.098
	c-3.997,0.007-7.994,0.003-11.991,0.002c-0.879,0-1.76,0.023-2.638-0.006c-1.665-0.056-1.846-0.333-1.829-2.015
	c0.012-1.162,0.544-1.535,1.621-1.516c1.918,0.034,3.838,0.036,5.755-0.002c1.707-0.034,1.816-0.169,1.57-1.784
	c-0.279-1.83-0.157-3.669-0.104-5.498c0.043-1.468,1.396-2.173,2.73-1.579c0.661,0.294,0.598,0.887,0.596,1.427
	c-0.006,1.997,0.02,3.998-0.091,5.99c-0.059,1.056,0.3,1.467,1.323,1.455c1.838-0.021,3.677-0.021,5.516,0.002
	c2.094,0.026,2.194,0.119,2.226,2.135c0.028,1.758,0.048,3.519-0.007,5.276c-0.032,1.021,0.317,1.487,1.372,1.388
	c0.555-0.052,1.118-0.008,1.678-0.007C2927.614,967.697,2927.614,967.697,2928.728,971.396z"/>
<path fill="#2190A4" d="M2733.153,1273.793c0,4.719-0.012,9.438,0.006,14.156c0.007,1.788,0.038,1.832,1.884,1.814
	c1.267-0.012,2.81,0.521,3.728-0.252c0.855-0.72,0.093-2.21,0.104-3.357c0.063-6.797,0.025-13.596,0.034-20.394
	c0.003-2.642,0.21-2.848,2.885-2.858c3.839-0.014,7.678-0.01,11.517,0.007c0.516,0.002,1.255-0.205,1.354,0.594
	c0.124,1.005,0.36,2.08-0.201,3.01c-0.259,0.43-0.89,0.225-1.354,0.227c-3.119,0.014-6.24,0.058-9.357-0.016
	c-1.255-0.03-1.671,0.39-1.65,1.635c0.061,3.598,0.002,7.198,0.029,10.797c0.013,1.779,0.051,1.806,1.948,1.821
	c3.039,0.024,6.078-0.015,9.117,0.017c1.553,0.017,1.512,0.102,1.58,1.904c0.046,1.249-0.377,1.663-1.632,1.634
	c-3.117-0.074-6.239,0.018-9.356-0.043c-1.231-0.024-1.702,0.386-1.684,1.644c0.055,3.758,0.051,7.518,0.002,11.276
	c-0.015,1.158,0.43,1.524,1.549,1.506c3.118-0.05,6.238-0.033,9.357,0c0.577,0.006,1.427-0.331,1.63,0.535
	c0.215,0.919,0.312,1.926-0.1,2.816c-0.22,0.477-0.854,0.294-1.32,0.328c-0.909,0.065-1.786-0.158-2.548,0.838
	c-0.471,0.616-1.874,0.619-2.393-0.033c-0.769-0.967-1.651-0.773-2.556-0.794c-1.519-0.035-3.04,0.02-4.558-0.018
	c-2.027-0.05-2.231-0.249-2.255-2.191c-0.02-1.678-0.037-3.361,0.051-5.036c0.095-1.807,0.137-1.842-1.709-1.878
	c-1.759-0.034-3.519,0.015-5.278-0.015c-1.811-0.031-1.846-0.053-1.854-1.918c-0.021-4.639,0.004-9.277-0.012-13.916
	c-0.007-1.866-0.034-1.887-1.814-1.913c-1.839-0.027-3.68,0.029-5.518-0.019c-1.513-0.039-1.661-0.262-1.63-1.942
	c0.028-1.531,0.136-1.694,1.591-1.728c1.918-0.045,3.841-0.069,5.757,0.006c1.281,0.05,1.649-0.488,1.636-1.695
	c-0.046-4.318-0.018-8.637-0.017-12.956c0-0.48-0.015-0.96,0.003-1.439c0.066-1.737,0.123-1.805,1.992-1.838
	c1.599-0.028,3.199-0.006,4.799-0.006c3.599,0,7.198-0.012,10.797,0.005c2.143,0.01,2.246,0.19,2.27,2.062
	c0.016,1.199-0.495,1.49-1.581,1.473c-3.119-0.046-6.238-0.016-9.357-0.015c-1.36,0-2.72-0.025-4.079,0.007
	c-1.698,0.04-1.776,0.089-1.794,1.762c-0.035,3.279-0.011,6.558-0.011,9.837C2733.153,1270.754,2733.153,1272.273,2733.153,1273.793
	z"/>
<path fill="#208EA3" d="M2873.159,924.904c2.031,0.347,3.695,0.782,5.529,1.785c-0.676,0.033-1.032,0.062-1.388,0.066
	c-0.803,0.008-1.12,0.341-1.03,1.196c0.412,3.891,0.427,7.787-0.011,11.678c-0.094,0.836,0.262,1.184,1.06,1.184
	c1.599,0.001,3.198-0.03,4.796,0.017c1.88,0.055,2.363,0.72,2.081,2.592c-0.115,0.76-0.498,1.157-1.23,1.208
	c-0.636,0.044-1.277,0.034-1.917,0.034c-6.874,0.002-13.749-0.006-20.623,0.006c-1.958,0.003-1.968,0.029-1.992,1.968
	c-0.018,1.439-0.044,2.879,0.005,4.316c0.043,1.254-0.673,1.39-1.68,1.41c-1.064,0.021-1.4-0.432-1.373-1.43
	c0.044-1.598-0.047-3.2,0.027-4.795c0.055-1.185-0.444-1.498-1.553-1.49c-5.275,0.04-10.551,0.017-15.827,0.017
	c-2.558,0-5.116,0.03-7.674-0.012c-1.64-0.027-1.816-0.245-1.842-1.768c-0.029-1.705,0.192-1.996,1.852-2.05
	c1.677-0.055,3.357,0.006,5.035-0.023c0.696-0.012,1.448,0.207,2.053-0.323c-0.315-5.514-0.063-11.018-0.163-16.518
	c-0.019-1.018,0.34-1.458,1.374-1.422c0.549,0.019,1.103-0.122,1.653-0.19c0.344,0.815,0.187,1.624,0.19,2.412
	c0.016,4.796,0.034,9.592-0.01,14.388c-0.011,1.167,0.241,1.696,1.574,1.689c9.832-0.051,19.664-0.045,29.496-0.007
	c1.276,0.005,1.636-0.463,1.608-1.685c-0.09-4.038,0.392-3.6-3.595-3.606c-7.114-0.012-14.228,0.007-21.343-0.01
	c-1.878-0.005-2.035-0.254-1.975-2.067c0.033-0.998,0.405-1.463,1.426-1.451c1.998,0.024,3.997,0.036,5.995-0.008
	c1.497-0.033,1.557-0.147,1.541-1.689c-0.019-1.838-0.062-3.677-0.038-5.514c0.02-1.537,0.22-1.714,1.6-1.747
	c1.431-0.034,1.603,0.103,1.632,1.633c0.036,1.918,0.049,3.838-0.004,5.755c-0.03,1.092,0.3,1.604,1.487,1.589
	c3.916-0.047,7.833-0.035,11.75-0.008c1.13,0.008,1.562-0.454,1.521-1.585C2873.113,928.697,2873.159,926.944,2873.159,924.904z"/>
<path fill="#2290A5" d="M2766.219,923.057c3.918,0,7.837,0.035,11.754-0.014c2.218-0.028,4.427,0.161,6.652-0.4
	c1.963-0.495,2.28-0.083,2.289,1.82c0.01,2.155-0.087,2.262-2.319,2.288c-1.759,0.02-3.52,0.048-5.277-0.009
	c-1.143-0.037-1.552,0.418-1.539,1.549c0.043,3.758,0.035,7.516,0.006,11.274c-0.007,0.934,0.368,1.279,1.277,1.259
	c1.598-0.035,3.2-0.047,4.797,0.005c1.664,0.054,1.965,0.405,1.942,2.001c-0.021,1.495-0.264,1.813-1.838,1.823
	c-5.437,0.036-10.875,0.035-16.312,0.001c-1.595-0.01-1.836-0.315-1.866-1.796c-0.033-1.599,0.279-1.981,1.915-2.027
	c1.918-0.055,3.838-0.034,5.757-0.008c0.953,0.013,1.4-0.192,1.376-1.349c-0.081-3.834-0.023-7.672,0.026-11.507
	c0.01-0.8-0.225-1.216-1.056-1.202c-0.32,0.006-0.64-0.01-0.959-0.01c-6.637-0.001-13.274-0.009-19.91,0.005
	c-1.927,0.004-1.858,0.03-1.743,1.944c0.105,1.753,0.052,3.516,0.04,5.275c-0.008,1.047-0.484,1.594-1.624,1.58
	c-3.038-0.039-6.077-0.04-9.115,0.001c-1.132,0.016-1.596-0.455-1.589-1.559c0.018-3.118-0.029-6.238,0.023-9.355
	c0.022-1.321,0.472-1.581,1.817-1.599c1.271-0.017,1.4,0.733,1.389,1.717c-0.023,1.999,0.018,3.998-0.013,5.997
	c-0.014,0.922,0.376,1.209,1.28,1.278c4.486,0.343,4.458,0.368,4.483-3.987c0.033-5.915-0.655-4.922,4.906-4.984
	C2757.263,923.017,2761.741,923.057,2766.219,923.057z"/>
<path fill="#1A8DA2" d="M2919.715,1111.071c-0.33,1.194-1.026,1.764-1.488,2.482c-0.54,0.839-1.253,1.059-2.217,1.046
	c-3.595-0.048-7.192-0.031-10.788-0.014c-2.118,0.01-2.141,0.031-2.152,2.129c-0.019,3.596-0.056,7.193,0.021,10.788
	c0.028,1.312-0.381,2.177-1.388,3.053c-1.539,1.339-3.143,1.925-5.198,1.824c-3.109-0.152-6.232-0.062-9.348-0.031
	c-1.851,0.018-1.868,0.077-1.861,1.879c0.007,1.758,0.034,3.517,0,5.274c-0.031,1.603-0.215,1.847-1.771,1.925
	c-1.754,0.089-3.515,0.017-5.273,0.036c-1.832,0.02-1.844,0.032-1.769,1.932c0.024,0.604-0.014,1.143-0.715,1.315
	c-0.76,0.186-1.458,0.764-2.292,0.462c-0.323-0.117-0.304-0.52-0.305-0.83c-0.007-1.678,0.019-3.357-0.012-5.034
	c-0.02-1.056,0.508-1.384,1.481-1.364c1.598,0.033,3.196,0.011,4.795,0.005c2.834-0.009,2.844-0.011,2.846-2.756
	c0.006-6.953,0.002-13.905,0.002-20.858c0-0.4-0.005-0.799,0-1.199c0.026-1.973,0.077-2.045,1.428-2.061
	c1.468-0.017,1.587,0.114,1.591,2.188c0.009,4.635-0.005,9.27-0.014,13.905c-0.003,1.579-0.009,1.635,1.55,1.649
	c3.836,0.034,7.672,0.03,11.508,0.003c1.694-0.012,1.7-0.055,1.701-1.751c0.002-4.555-0.01-9.11,0-13.666
	c0.005-2.3,0.021-2.324,2.175-2.329C2907.971,1111.062,2913.721,1111.071,2919.715,1111.071z"/>
<path fill="#1F8EA3" d="M2822.499,935.543c-2.237,0.001-4.474-0.011-6.711,0.004c-2.125,0.014-2.062,0.025-2.037,2.088
	c0.051,4.313,0.055,8.628,0.023,12.942c-0.011,1.578-0.55,1.94-2.073,1.768c-1.249-0.141-1.259-1.037-1.265-1.927
	c-0.018-2.716-0.047-5.434,0.007-8.149c0.035-1.747-0.236-3.505,0.22-5.243c0.267-1.02-0.232-1.489-1.263-1.483
	c-1.917,0.012-3.835,0.018-5.752-0.004c-1.962-0.023-1.989-0.04-2.003-2.011c-0.023-3.116-0.022-6.232,0.002-9.348
	c0.011-1.373,1.375-2.161,2.573-1.522c0.52,0.277,0.442,0.803,0.445,1.269c0.01,1.997-0.009,3.995,0.011,5.992
	c0.021,2.044,0.035,2.044,1.949,2.105c3.698,0.117,3.697,0.117,3.693-3.675c-0.001-1.518,0.039-3.037-0.007-4.554
	c-0.043-1.413,0.93-1.194,1.792-1.217c0.923-0.024,1.76-0.068,1.705,1.303c-0.086,2.154-0.04,4.313-0.059,6.469
	c-0.014,1.532,0.021,1.641,1.569,1.657c3.755,0.04,7.51-0.021,11.265,0.033c1.271,0.018,1.659-0.484,1.626-1.705
	c-0.113-4.237,0.511-3.513-3.522-3.584c-1.278-0.022-2.558-0.035-3.835,0.005c-0.975,0.03-1.43-0.291-1.474-1.355
	c-0.089-2.165-0.008-2.282,2.13-2.35c2.535-0.08,5.062,0.161,7.606-0.409c2.213-0.496,2.427-0.148,2.434,2.155
	c0.01,3.036-0.04,6.073,0.022,9.108c0.025,1.229-0.378,1.698-1.64,1.659C2827.454,935.489,2824.976,935.543,2822.499,935.543z"/>
<path fill="#1F8EA3" d="M2840.453,1148.175c-3.643,0-7.296-0.007-10.948,0.004c-1.114,0.004-1.002-0.779-1.003-1.491
	c-0.006-2.877-0.003-5.754-0.004-8.63c0-0.879,0-1.758,0-2.637c0.001-3.082,0.001-3.083-3.199-3.077
	c-0.479,0.001-0.959-0.013-1.438,0.008c-0.963,0.043-1.269,0.388-1.23,1.502c0.149,4.309,0.066,8.625,0.149,12.937
	c0.024,1.271-0.599,1.416-1.62,1.413c-1.009-0.003-1.645-0.121-1.633-1.401c0.053-5.513,0.036-11.027,0.012-16.541
	c-0.004-1.027,0.437-1.444,1.427-1.435c1.758,0.015,3.516,0.009,5.274-0.004c2.25-0.016,2.27-0.022,2.273-2.205
	c0.01-7.192,0.004-14.384,0.004-21.576c0-0.479,0.027-0.96-0.003-1.438c-0.068-1.07,0.329-1.65,1.486-1.656
	c1.116-0.006,1.618,0.474,1.553,1.59c-0.032,0.557-0.003,1.118-0.003,1.678c0,12.866,0,25.731,0,38.597
	c0,0.559,0.022,1.119,0.002,1.678c-0.033,0.931,0.431,1.267,1.321,1.256c1.997-0.024,3.995-0.005,5.993-0.003
	C2839.692,1146.744,2840.536,1146.723,2840.453,1148.175z"/>
<path fill="#1F8EA3" d="M2855.397,1131.358c0-4.958,0.012-9.916-0.006-14.874c-0.007-1.853-0.038-1.871-1.835-1.894
	c-1.839-0.024-3.679,0.031-5.517-0.019c-1.52-0.041-1.628-0.18-1.637-1.682c-0.018-3.118,0.007-6.235-0.03-9.353
	c-0.011-0.942,0.214-1.536,1.285-1.588c1.301-0.063,1.905,0.282,1.95,1.497c0.071,1.915,0.059,3.839-0.037,5.753
	c-0.09,1.806-0.148,1.851,1.717,1.86c4.398,0.023,8.796,0.007,13.194,0.008c0.56,0,1.12,0.017,1.679,0.002
	c0.935-0.025,1.247,0.468,1.241,1.342c-0.019,2.879-0.024,5.758,0.002,8.636c0.009,1.037-0.587,1.496-1.469,1.486
	c-0.89-0.01-1.768-0.231-1.749-1.469c0.026-1.679-0.055-3.361,0.02-5.037c0.054-1.21-0.487-1.532-1.575-1.454
	c-0.875,0.063-1.765,0.08-2.636-0.003c-1.334-0.127-1.588,0.535-1.581,1.702c0.037,6.317,0.018,12.635,0.017,18.952
	c0,3.758,0.013,7.517-0.007,11.275c-0.009,1.523-1.047,2.171-2.481,1.632c-0.6-0.226-0.532-0.722-0.535-1.179
	c-0.013-2.159-0.009-4.318-0.01-6.477C2855.396,1137.435,2855.397,1134.396,2855.397,1131.358z"/>
<path fill="#2190A4" d="M2744.934,1239.864c-1.519-0.001-3.04,0.048-4.556-0.016c-1.249-0.053-1.49-0.478-1.48-1.908
	c0.007-1.076,0.397-1.628,1.551-1.605c1.998,0.039,3.998,0.041,5.995-0.004c1.496-0.034,1.55-0.16,1.515-1.708
	c-0.146-6.632-0.135-13.264-0.006-19.896c0.032-1.643,0.02-1.703-1.716-1.732c-1.838-0.03-3.678-0.04-5.516,0.004
	c-1.149,0.027-1.834-0.304-1.822-1.6c0.028-3.117-0.024-6.236,0.026-9.353c0.021-1.282,0.592-1.726,1.775-1.689
	c1.172,0.037,1.446,0.738,1.428,1.757c-0.03,1.678-0.014,3.358-0.004,5.036c0.014,2.296,0.02,2.299,2.427,2.311
	c1.599,0.007,3.198-0.029,4.796,0.011c1.6,0.041,1.849,0.235,1.871,1.791c0.025,1.832,0.254,3.691-0.142,5.494
	c-0.24,1.095,0.056,1.51,1.117,1.499c0.16-0.002,0.323-0.02,0.479,0.006c0.667,0.108,1.586-0.353,1.938,0.456
	c0.345,0.794,0.185,1.732,0.071,2.604c-0.063,0.484-0.446,0.612-0.876,0.619c-0.559,0.01-1.119,0.013-1.678,0.018
	c-0.898,0.008-1.206,0.337-1.106,1.335c0.492,4.937,0.115,9.894,0.217,14.842c0.024,1.185-0.532,1.761-1.746,1.737
	C2747.972,1239.842,2746.453,1239.865,2744.934,1239.864z"/>
<path fill="#1F8EA3" d="M2714.694,962.423c-2.078,0.001-4.155-0.012-6.233,0.005c-2.149,0.017-2.16,0.03-2.188,2.095
	c-0.02,1.518,0.004,3.036-0.006,4.555c-0.015,2.309-0.02,2.309-2.426,2.312c-0.16,0-0.322,0.015-0.479-0.003
	c-0.606-0.069-1.449,0.275-1.734-0.429c-0.358-0.884-0.21-1.884-0.053-2.834c0.011-0.069,0.087-0.172,0.145-0.182
	c2.374-0.388,1.353-2.253,1.488-3.551c0.131-1.265,0.079-2.556,0.017-3.832c-0.061-1.265,0.507-1.698,1.714-1.666
	c1.916,0.052,3.836,0.044,5.752,0.001c1.549-0.035,1.542-0.145,1.459-1.636c-0.107-1.911-0.079-3.828-0.122-5.743
	c-0.024-1.077,0.405-1.619,1.562-1.586c1.379,0.038,1.74,0.241,1.774,1.634c0.046,1.914,0.019,3.834-0.095,5.745
	c-0.067,1.125,0.258,1.638,1.434,1.607c1.677-0.044,3.357,0.04,5.033-0.02c1.551-0.056,1.289,1,1.339,1.938
	c0.055,1.038-0.175,1.654-1.431,1.611C2719.33,962.366,2717.011,962.422,2714.694,962.423z"/>
<path fill="#1A8DA2" d="M2802.553,1114.576c-2.794,0.001-5.589,0.033-8.383-0.013c-1.437-0.023-1.586-0.249-1.611-1.735
	c-0.025-1.507,0.108-1.702,1.551-1.744c1.675-0.049,3.353,0.001,5.029-0.017c2.472-0.027,2.48-0.038,2.482-2.613
	c0.005-4.95,0.015-9.9-0.01-14.849c-0.005-1.022,0.152-1.666,1.425-1.601c1.478,0.076,1.611,0.071,1.618,1.62
	c0.024,5.03,0.002,10.059,0.013,15.089c0.005,2.336,0.02,2.34,2.417,2.357c1.357,0.01,2.715,0.036,4.071-0.005
	c1.167-0.036,1.523,0.56,1.524,1.622c0.001,1.424-0.236,1.85-1.505,1.874C2808.302,1114.612,2805.427,1114.576,2802.553,1114.576z"
	/>
<path fill="#2291A5" d="M2837.306,1135.056c0.001-1.519-0.05-3.039,0.017-4.555c0.059-1.348,0.491-1.651,1.78-1.684
	c1.223-0.032,1.453,0.639,1.432,1.671c-0.039,1.917,0.038,3.838-0.027,5.754c-0.042,1.217,0.38,1.751,1.643,1.712
	c1.916-0.06,3.837,0.027,5.754-0.027c1.208-0.034,1.767,0.415,1.749,1.659c-0.036,2.477-0.043,4.956,0.001,7.433
	c0.022,1.234-0.767,1.185-1.593,1.17c-0.788-0.014-1.669,0.148-1.64-1.116c0.031-1.358-0.043-2.719,0.014-4.075
	c0.047-1.115-0.34-1.589-1.512-1.545c-1.916,0.071-3.837,0.054-5.754,0.005c-1.54-0.039-1.793-0.293-1.852-1.845
	C2837.26,1138.095,2837.305,1136.575,2837.306,1135.056z"/>
<path fill="#1C8EA3" d="M2715.367,937.942c0,1.355,0.01,2.71-0.003,4.065c-0.011,1.073-0.536,1.561-1.645,1.554
	c-1.108-0.007-1.649-0.543-1.665-1.573c-0.023-1.591-0.017-3.187,0.086-4.774c0.098-1.511,0.094-1.628-1.401-1.66
	c-1.992-0.042-3.986-0.052-5.978,0.002c-1.142,0.031-1.546-0.439-1.534-1.551c0.038-3.348,0.059-6.697-0.01-10.043
	c-0.026-1.281,0.613-1.395,1.626-1.399c0.983-0.004,1.464,0.26,1.438,1.341c-0.053,2.151,0.035,4.306-0.032,6.456
	c-0.037,1.199,0.313,1.75,1.606,1.688c1.75-0.083,3.507-0.034,5.26-0.016c2.148,0.022,2.227,0.103,2.268,2.324
	c0.022,1.195,0.004,2.391,0.004,3.587C2715.38,937.942,2715.374,937.942,2715.367,937.942z"/>
<path fill="#2291A5" d="M2935.702,1079.773c0-1.404,0-2.807,0-4.211c0-8.308-0.003-16.616,0.005-24.924
	c0.001-1.012-0.23-2.171,1.355-2.303c1.421-0.118,1.888,0.225,2.003,1.649c0.032,0.397,0.011,0.798,0.01,1.198
	c-0.021,4.472-0.042,8.945-0.064,13.417c-0.001,0.317-0.149,0.785,0.006,0.928c1.3,1.193,0.42,2.445,0.152,3.665
	c-0.668,3.034-1.497,6.026-2.513,8.963c-0.199,0.574-0.444,1.133-0.667,1.698C2935.893,1079.826,2935.797,1079.8,2935.702,1079.773z
	"/>
<path fill="#2291A5" d="M2932.659,980.273c-2.703,0.464-2.702,0.464-2.704,3.342c0,1.117-0.019,2.234,0,3.351
	c0.016,0.942-0.482,1.246-1.347,1.233c-0.839-0.013-1.664,0.004-1.676-1.159c-0.017-1.755-0.047-3.511-0.013-5.266
	c0.018-0.935-0.382-1.276-1.283-1.263c-1.915,0.028-3.831,0.037-5.745-0.005c-1.717-0.038-1.953-0.311-1.947-1.959
	c0.006-1.583,0.245-1.855,2.021-1.876c3.191-0.038,6.384-0.018,9.576-0.009c2.099,0.006,2.103,0.015,2.849,2.03
	C2932.578,979.199,2932.961,979.68,2932.659,980.273z"/>
<path fill="#1F8EA3" d="M2708.355,1182.588c1.831,0.001,3.662,0.027,5.493-0.01c0.998-0.02,1.508,0.426,1.515,1.39
	c0.02,2.865,0.013,5.731,0.004,8.597c-0.003,1.104-0.63,1.573-1.679,1.531c-1.032-0.042-1.649-0.565-1.645-1.633
	c0.007-1.589-0.109-3.206,0.148-4.758c0.209-1.262-0.183-1.602-1.292-1.6c-2.468,0.005-4.936,0.011-7.404-0.004
	c-1.891-0.011-2.577-1.036-1.987-2.863c0.238-0.737,0.823-0.638,1.354-0.644C2704.693,1182.577,2706.524,1182.588,2708.355,1182.588
	z"/>
<path fill="#1C8EA3" d="M2934.03,1084.19c0.309,1.009-0.177,1.533-0.353,2.128c-0.311,1.057-1.006,1.427-2.138,1.409
	c-3.99-0.065-7.983-0.005-11.974-0.036c-1.546-0.012-1.592-0.112-1.613-1.658c-0.023-1.609,0.079-1.819,1.442-1.829
	C2924.254,1084.168,2929.115,1084.19,2934.03,1084.19z"/>
<path fill="#2B94A8" d="M2707.65,1123.567c-1.59,0-3.181-0.032-4.771,0.011c-0.983,0.027-1.412-0.295-1.45-1.354
	c-0.083-2.282-0.06-2.369,2.31-2.376c2.863-0.008,5.726-0.026,8.588,0.008c1.695,0.02,1.991,0.35,1.966,1.915
	c-0.023,1.44-0.299,1.742-1.872,1.786C2710.831,1123.602,2709.24,1123.567,2707.65,1123.567z"/>
<path fill="#2B94A8" d="M2706.276,947.483c0,1.592-0.002,3.183,0.001,4.775c0.001,0.868-0.425,1.336-1.292,1.369
	c-0.636,0.024-1.274,0.037-1.909,0.014c-0.677-0.025-1.553,0.205-1.598-0.898c-0.037-0.909-0.322-1.97,1.164-2.106
	c0.999-0.091,1.233-0.817,1.203-1.717c-0.035-1.033-0.037-2.07,0.001-3.103c0.04-1.081-0.133-1.776-1.507-1.827
	c-1.385-0.051-0.767-1.299-0.868-2.063c-0.108-0.809,0.341-1.162,1.134-1.118c0.158,0.009,0.318,0.002,0.477-0.004
	c3.076-0.114,3.199,0.005,3.203,3.096c0.001,1.194,0,2.387,0,3.581C2706.282,947.483,2706.279,947.483,2706.276,947.483z"/>
<path fill="#2B94A8" d="M2706.282,1277.556c-0.001,1.519-0.018,3.039,0.004,4.557c0.014,1.02-0.492,1.419-1.467,1.445
	c-1.001,0.027-1.784-0.19-1.8-1.374c-0.022-1.598-0.017-3.198,0.021-4.796c0.018-0.742,0.134-1.473-0.861-1.673
	c-0.588-0.118-0.664-0.562-0.727-1.071c-0.291-2.324-0.036-2.631,2.292-2.637c0.32-0.001,0.644,0.033,0.959-0.004
	c1.331-0.159,1.647,0.55,1.594,1.716C2706.239,1274.995,2706.284,1276.277,2706.282,1277.556z"/>
<path fill="#2291A5" d="M2706.274,1232.986c-0.001,1.43-0.045,2.861,0.013,4.289c0.048,1.166-0.483,1.524-1.573,1.493
	c-1.464-0.042-1.74-0.192-1.796-1.548c-0.055-1.348,0.003-2.7-0.02-4.05c-0.015-0.893,0.167-1.676-1.009-2.328
	c-0.976-0.542-0.494-2.069-0.301-3.109c0.141-0.758,1.059-0.448,1.659-0.509c0.236-0.024,0.476-0.006,0.714-0.004
	c2.276,0.016,2.283,0.016,2.31,2.192C2706.287,1230.603,2706.275,1231.795,2706.274,1232.986z"/>
<path fill="#2B94A8" d="M2751.545,1289.767c0.399,0,0.798-0.005,1.197,0.001c2.066,0.03,2.056,0.073,2.04,2.17
	c-0.008,1.078-0.278,1.643-1.485,1.567c-1.272-0.08-2.555-0.069-3.828-0.003c-1.141,0.06-1.575-0.451-1.609-1.531
	c-0.047-1.497,0.3-2.071,1.532-2.186c0.712-0.066,1.435-0.012,2.153-0.012C2751.545,1289.771,2751.545,1289.769,2751.545,1289.767z"
	/>
<path fill="#2B94A8" d="M2751.467,1275.728c-0.479,0-0.957,0.01-1.436-0.002c-1.918-0.049-2.444-0.669-2.156-2.465
	c0.135-0.845,0.571-1.261,1.438-1.253c1.436,0.015,2.872,0.024,4.307-0.004c0.81-0.016,1.083,0.346,1.154,1.133
	c0.213,2.342,0.032,2.574-2.35,2.59C2752.105,1275.73,2751.786,1275.728,2751.467,1275.728z"/>
<path fill="#1A8DA2" d="M2751.43,1186.1c-0.556,0-1.112,0.016-1.667-0.003c-1.646-0.055-2.469-1.439-1.732-2.886
	c0.253-0.497,0.691-0.607,1.184-0.611c1.112-0.008,2.223-0.016,3.335-0.008c2.267,0.016,2.378,0.19,2.21,2.441
	c-0.063,0.851-0.424,1.096-1.185,1.068c-0.714-0.026-1.429-0.006-2.144-0.006C2751.43,1186.097,2751.43,1186.098,2751.43,1186.1z"/>
<path fill="#2B94A8" d="M2935.692,988.925c1.451,2.44,1.971,5.075,2.675,7.648c0.162,0.593,0.645,1.454-0.538,1.689
	c-1.275,0.254-2.051-0.248-2.116-1.495c-0.07-1.344-0.02-2.693-0.021-4.041C2935.691,991.459,2935.692,990.192,2935.692,988.925z"/>
<path fill="#2B94A8" d="M2938.633,1007.407c-2.488,0.012-3.246-0.679-2.927-2.572c0.139-0.825,0.579-1.263,1.415-1.293
	c0.315-0.011,0.632-0.027,0.947-0.01c0.617,0.034,1.467-0.245,1.774,0.333c0.471,0.886,0.78,1.956,0.556,2.964
	C2940.177,1007.823,2939.202,1007.236,2938.633,1007.407z"/>
<path fill="#2B94A8" d="M2703.237,1078.927c-1.655,0.032-1.749-0.057-1.785-1.681c-0.043-1.932,0.018-2.007,1.653-2.039
	c1.877-0.037,2.232,0.263,2.217,1.875C2705.307,1078.567,2704.938,1078.894,2703.237,1078.927z"/>
<path fill="#2B94A8" d="M2930.583,1092.971c-1.006,2.58-2.129,4.623-3.667,6.604c0-1.789-0.01-3.577,0.004-5.366
	c0.007-0.91,0.554-1.251,1.402-1.24C2928.954,1092.977,2929.587,1092.971,2930.583,1092.971z"/>
<path fill="#2B94A8" d="M2701.452,1103.936c-0.013-1.941,0.03-1.991,1.701-2.005c1.831-0.016,2.192,0.311,2.166,1.956
	c-0.025,1.581-0.452,1.943-2.269,1.921C2701.493,1105.788,2701.463,1105.754,2701.452,1103.936z"/>
<path fill="#2291A5" d="M2703.149,1141.469c-1.65-0.013-1.688-0.052-1.687-1.746c0.001-1.736,0.064-1.795,1.907-1.782
	c1.743,0.012,1.99,0.247,1.941,1.841C2705.264,1141.257,2704.975,1141.483,2703.149,1141.469z"/>
<path fill="#2290A5" d="M2846.283,923.536c0.021-1.547,0.134-1.644,1.852-1.593c1.441,0.042,1.539,0.155,1.507,1.716
	c-0.032,1.584-0.265,1.821-1.774,1.807C2846.397,925.452,2846.259,925.284,2846.283,923.536z"/>
<path fill="#2B94A8" d="M2908.918,1123.955c-0.202-4.229-0.172-4.26,3.625-3.985
	C2911.773,1121.621,2910.388,1122.572,2908.918,1123.955z"/>
<path fill="#2B94A8" d="M2713.856,922.573c1.092-0.153,1.654,0.216,1.55,1.407c-0.11,1.261-0.44,1.563-1.843,1.493
	c-1.24-0.062-1.574-0.505-1.557-1.807C2712.025,922.209,2713.091,922.665,2713.856,922.573z"/>
<path fill="#2B94A8" d="M2865.904,925.465c-1.001,0.065-1.807-0.007-1.771-1.297c0.022-0.768,0.268-1.318,1.075-1.082
	c0.791,0.232,2.067-0.248,2.187,1.2C2867.491,925.445,2866.71,925.531,2865.904,925.465z"/>
<path fill="#2290A5" d="M2792.767,976.752c-0.065-0.399-0.122-0.864,0.385-0.951c0.619-0.106,1.262-0.094,1.895-0.095
	c6.91-0.006,13.82-0.01,20.729,0c2.461,0.003,2.332-0.304,2.32,2.276c-0.001,0.236-0.054,0.472-0.083,0.708
	c-1.115,0.003-2.229,0.006-3.343,0.009c-0.316-0.018-0.632-0.036-0.948-0.055c-0.153-1.019-0.938-0.876-1.646-0.918
	c-0.856-0.051-1.837,0.297-2.529-0.361c-0.752-0.715-1.606-0.584-2.459-0.587C2802.315,976.758,2797.541,976.759,2792.767,976.752z"
	/>
<path fill="#1A8DA2" d="M2792.767,976.752c4.774,0.006,9.547,0.006,14.321,0.025c0.853,0.003,1.708-0.128,2.459,0.587
	c0.692,0.658,1.672,0.31,2.529,0.361c0.709,0.042,1.493-0.101,1.646,0.918c-6.535,0.032-13.069,0.077-19.604,0.084
	C2792.746,978.729,2792.746,978.665,2792.767,976.752z"/>
<path fill="#1F8EA3" d="M2886.425,1012.672c1.961,0,3.701,0.011,5.44-0.004c1.109-0.01,1.272,0.676,1.26,1.569
	c-0.012,0.877,0.133,1.825-1.139,1.925c-0.552,0.044-1.111,0.02-1.667,0.021C2887.083,1016.192,2887.083,1016.191,2886.425,1012.672
	z"/>
<path fill="#2B94A8" d="M2884.885,1009.235c-0.793-1.782-1.587-3.564-2.394-5.378c2.637-0.511,2.804-0.394,2.832,1.919
	c0.014,1.16,0.002,2.321,0.002,3.481C2885.178,1009.25,2885.032,1009.242,2884.885,1009.235z"/>
<path fill="#2B94A8" d="M2842.721,1037.414c0.104,14.232-11.509,25.98-25.791,26.092c-14.327,0.112-26.132-11.393-26.271-25.605
	c-0.142-14.513,11.539-26.341,26.021-26.35C2830.975,1011.544,2842.617,1023.106,2842.721,1037.414z M2816.697,1056.693
	c4.718,1.383,8.475-0.625,11.908-3.647c0.298-0.263,0.624-0.51,0.974-0.696c3.012-1.594,4.682-4.08,5.399-7.414
	c0.518-2.407,1.943-4.703,2.056-7.091c0.118-2.486-1.566-4.818-2.106-7.299c-0.811-3.729-2.696-6.484-6.062-8.371
	c-2.076-1.165-3.766-3.24-5.941-3.947c-2.176-0.707-4.756-0.059-7.131-0.292c-3.958-0.388-7.39,0.553-10.285,3.328
	c-0.342,0.328-0.753,0.607-1.176,0.823c-3.182,1.628-5.037,4.156-5.767,7.696c-0.496,2.409-1.87,4.693-2.061,7.095
	c-0.2,2.51,1.457,4.848,1.937,7.349c0.767,3.997,3.04,6.634,6.362,9C2808.472,1055.844,2811.981,1057.922,2816.697,1056.693z
	 M2812.681,1058.565c1.216,1.3,2.441,1.974,3.555,2.774c0.266,0.191,0.588,0.237,0.879,0.028c1.166-0.836,2.427-1.567,3.615-2.803
	C2817.929,1058.565,2815.521,1058.565,2812.681,1058.565z M2837.934,1034.58c2.305-3.814,2.236-4.261-1-6.551
	c-0.335-0.238-0.583-0.788-1.324-0.434C2836.37,1029.879,2837.133,1032.173,2837.934,1034.58z M2792.837,1032.465
	c-0.746,3.285-0.947,6.239-0.06,9.45C2794.485,1038.782,2794.964,1035.85,2792.837,1032.465z M2795.587,1040.383
	c-0.155,0.016-0.309,0.033-0.463,0.05c-0.392,1.207-0.765,2.421-1.185,3.618c-0.208,0.593-0.205,1.08,0.364,1.457
	c1.092,0.723,2.03,1.693,3.623,2.356C2797.076,1045.145,2796.331,1042.764,2795.587,1040.383z M2804.741,1058.711
	c2.848,1.724,5.614,2.53,8.743,2.962C2811.154,1058.938,2808.492,1057.8,2804.741,1058.711z M2828.547,1058.725
	c-3.775-0.959-6.38,0.308-8.711,2.958C2822.945,1061.255,2825.704,1060.455,2828.547,1058.725z M2805.269,1016.263
	c3.322,0.84,5.902-0.274,8.107-2.797C2809.435,1014.038,2807.397,1014.745,2805.269,1016.263z M2797.905,1026.753
	c-4.599,2.746-4.713,3.124-2.292,7.02C2796.367,1031.463,2797.074,1029.3,2797.905,1026.753z M2832.353,1052.362
	c-2.166,1.489-4.046,2.788-6.243,4.591c1.754,0,2.87-0.006,3.985,0.002c0.613,0.004,1.125-0.167,1.294-0.815
	C2831.686,1055.011,2832.266,1053.947,2832.353,1052.362z M2840.536,1033.439c-1.724,2.899-1.736,5.579-0.092,8.252
	C2841.303,1039.788,2841.377,1036.208,2840.536,1033.439z M2837.998,1041.083c-0.787,1.474-1.087,3.041-1.586,4.534
	c-0.19,0.57-0.562,1.14-0.396,1.813c3.912-1.943,4.083-2.381,2.401-6.128C2838.394,1041.25,2838.292,1041.233,2837.998,1041.083z
	 M2833.403,1019.806c0.143,3.764,2.041,5.79,5.277,7.237C2837.376,1024.19,2835.722,1021.987,2833.403,1019.806z M2795.058,1048.197
	c0.926,2.834,2.961,5.52,4.975,6.722C2798.944,1050.536,2798.944,1050.536,2795.058,1048.197z M2807.066,1056.766
	c-2.072-1.547-3.698-2.965-5.723-4.021c0.669,4.3,0.692,4.321,4.596,4.206C2806.162,1056.944,2806.382,1056.88,2807.066,1056.766z
	 M2820.454,1016.119c-1.262-0.927-2.097-1.511-2.898-2.138c-0.481-0.376-0.962-0.597-1.491-0.179
	c-1.011,0.801-2.301,1.289-3.271,2.778C2815.403,1016.073,2817.681,1016.487,2820.454,1016.119z M2838.776,1047.956
	c-3.27,1.442-4.922,3.538-5.059,6.967C2835.891,1052.94,2837.377,1050.752,2838.776,1047.956z M2832.005,1022.508
	c-1.154-5.018-0.693-5.064-5.801-4.218C2828.126,1019.688,2829.889,1020.969,2832.005,1022.508z M2806.705,1018.467
	c-3.542-1.375-5.254-0.184-5.168,3.625C2803.284,1020.867,2804.972,1019.682,2806.705,1018.467z M2794.899,1026.537
	c3.021-1.45,4.891-3.178,4.876-6.543C2797.758,1021.845,2796.307,1023.862,2794.899,1026.537z M2828.021,1015.972
	c-2.748-1.407-5.19-2.199-8-2.519C2822.074,1016.153,2824.63,1016.706,2828.021,1015.972z"/>
</svg>
